<?xml version="1.0" encoding="utf-8"?>
<!DOCTYPE svg PUBLIC "-//W3C//DTD SVG 1.1 Basic//EN" "http://www.w3.org/Graphics/SVG/1.1/DTD/svg11-basic.dtd">
<svg version="1.1" baseProfile="basic" id="Layer_1" xmlns="http://www.w3.org/2000/svg" xmlns:xlink="http://www.w3.org/1999/xlink" x="0px" y="0px" width="512px" height="512px" viewBox="0 0 512 512" xml:space="preserve">
<circle stroke="#000000" stroke-width="0.1" fill="none" cx="256" cy="1030.00248359739" r="773.2032367030184" />
<circle stroke="#000000" stroke-width="0.1" fill="none" cx="270.14213562373095" cy="1026.5295200440514" r="761.6186773962271" />
<circle stroke="#000000" stroke-width="0.1" fill="none" cx="284.2842712474619" cy="1023.0565564907126" r="750.0341180894357" />
<circle stroke="#000000" stroke-width="0.1" fill="none" cx="298.42640687119285" cy="1019.5835929373741" r="738.4495587826443" />
<circle stroke="#000000" stroke-width="0.1" fill="none" cx="312.5685424949238" cy="1016.1106293840355" r="726.864999475853" />
<circle stroke="#000000" stroke-width="0.1" fill="none" cx="326.71067811865476" cy="1012.6376658306967" r="715.2804401690614" />
<circle stroke="#000000" stroke-width="0.1" fill="none" cx="340.8528137423857" cy="1009.1647022773583" r="703.6958808622702" />
<circle stroke="#000000" stroke-width="0.1" fill="none" cx="354.99494936611666" cy="1005.6917387240196" r="692.1113215554788" />
<circle stroke="#000000" stroke-width="0.1" fill="none" cx="369.1370849898476" cy="1002.2187751706809" r="680.5267622486873" />
<circle stroke="#000000" stroke-width="0.1" fill="none" cx="383.27922061357856" cy="998.7458116173424" r="668.942202941896" />
<circle stroke="#000000" stroke-width="0.1" fill="none" cx="397.4213562373095" cy="995.2728480640038" r="657.3576436351046" />
<circle stroke="#000000" stroke-width="0.1" fill="none" cx="114.57864376269052" cy="995.2728480640038" r="657.3576436351046" />
<circle stroke="#000000" stroke-width="0.1" fill="none" cx="128.72077938642144" cy="991.7998845106652" r="645.7730843283132" />
<circle stroke="#000000" stroke-width="0.1" fill="none" cx="142.8629150101524" cy="988.3269209573266" r="634.1885250215219" />
<circle stroke="#000000" stroke-width="0.1" fill="none" cx="157.00505063388334" cy="984.853957403988" r="622.6039657147305" />
<circle stroke="#000000" stroke-width="0.1" fill="none" cx="171.1471862576143" cy="981.3809938506494" r="611.0194064079391" />
<circle stroke="#000000" stroke-width="0.1" fill="none" cx="185.28932188134524" cy="977.9080302973107" r="599.4348471011476" />
<circle stroke="#000000" stroke-width="0.1" fill="none" cx="199.4314575050762" cy="974.4350667439721" r="587.8502877943563" />
<circle stroke="#000000" stroke-width="0.1" fill="none" cx="213.57359312880715" cy="970.9621031906336" r="576.265728487565" />
<circle stroke="#000000" stroke-width="0.1" fill="none" cx="227.7157287525381" cy="967.4891396372949" r="564.6811691807735" />
<circle stroke="#000000" stroke-width="0.1" fill="none" cx="241.85786437626908" cy="964.0161760839562" r="553.0966098739821" />
<circle stroke="#000000" stroke-width="0.1" fill="none" cx="256" cy="960.5432125306177" r="541.5120505671907" />
<circle stroke="#000000" stroke-width="0.1" fill="none" cx="256" cy="751.4567874693823" r="658.4879494328093" />
<circle stroke="#000000" stroke-width="0.1" fill="none" cx="270.14213562373095" cy="747.9838239160438" r="646.9033901260179" />
<circle stroke="#000000" stroke-width="0.1" fill="none" cx="284.2842712474619" cy="744.5108603627051" r="635.3188308192265" />
<circle stroke="#000000" stroke-width="0.1" fill="none" cx="298.42640687119285" cy="741.0378968093664" r="623.734271512435" />
<circle stroke="#000000" stroke-width="0.1" fill="none" cx="312.5685424949238" cy="737.5649332560279" r="612.1497122056437" />
<circle stroke="#000000" stroke-width="0.1" fill="none" cx="326.71067811865476" cy="734.0919697026893" r="600.5651528988524" />
<circle stroke="#000000" stroke-width="0.1" fill="none" cx="340.8528137423857" cy="730.6190061493506" r="588.9805935920609" />
<circle stroke="#000000" stroke-width="0.1" fill="none" cx="354.99494936611666" cy="727.146042596012" r="577.3960342852695" />
<circle stroke="#000000" stroke-width="0.1" fill="none" cx="369.1370849898476" cy="723.6730790426734" r="565.8114749784781" />
<circle stroke="#000000" stroke-width="0.1" fill="none" cx="383.27922061357856" cy="720.2001154893348" r="554.2269156716868" />
<circle stroke="#000000" stroke-width="0.1" fill="none" cx="397.4213562373095" cy="716.7271519359962" r="542.6423563648954" />
<circle stroke="#000000" stroke-width="0.1" fill="none" cx="114.57864376269052" cy="716.7271519359962" r="542.6423563648954" />
<circle stroke="#000000" stroke-width="0.1" fill="none" cx="128.72077938642144" cy="713.2541883826576" r="531.057797058104" />
<circle stroke="#000000" stroke-width="0.1" fill="none" cx="142.8629150101524" cy="709.7812248293191" r="519.4732377513127" />
<circle stroke="#000000" stroke-width="0.1" fill="none" cx="157.00505063388334" cy="706.3082612759804" r="507.88867844452125" />
<circle stroke="#000000" stroke-width="0.1" fill="none" cx="171.1471862576143" cy="702.8352977226418" r="496.30411913772986" />
<circle stroke="#000000" stroke-width="0.1" fill="none" cx="185.28932188134524" cy="699.3623341693033" r="484.7195598309385" />
<circle stroke="#000000" stroke-width="0.1" fill="none" cx="199.4314575050762" cy="695.8893706159645" r="473.135000524147" />
<circle stroke="#000000" stroke-width="0.1" fill="none" cx="213.57359312880715" cy="692.4164070626259" r="461.5504412173557" />
<circle stroke="#000000" stroke-width="0.1" fill="none" cx="227.7157287525381" cy="688.9434435092874" r="449.9658819105643" />
<circle stroke="#000000" stroke-width="0.1" fill="none" cx="241.85786437626908" cy="685.4704799559488" r="438.3813226037729" />
<circle stroke="#000000" stroke-width="0.1" fill="none" cx="256" cy="681.9975164026101" r="426.79676329698157" />
<circle stroke="#000000" stroke-width="0.1" fill="none" cx="256" cy="1002.147913984589" r="761.7317079759974" />
<circle stroke="#000000" stroke-width="0.1" fill="none" cx="256" cy="974.2933443717883" r="750.2601792489766" />
<circle stroke="#000000" stroke-width="0.1" fill="none" cx="256" cy="946.4387747589876" r="738.7886505219557" />
<circle stroke="#000000" stroke-width="0.1" fill="none" cx="256" cy="918.5842051461868" r="727.3171217949347" />
<circle stroke="#000000" stroke-width="0.1" fill="none" cx="256" cy="890.729635533386" r="715.8455930679138" />
<circle stroke="#000000" stroke-width="0.1" fill="none" cx="256" cy="862.8750659205853" r="704.3740643408929" />
<circle stroke="#000000" stroke-width="0.1" fill="none" cx="256" cy="835.0204963077845" r="692.9025356138719" />
<circle stroke="#000000" stroke-width="0.1" fill="none" cx="256" cy="807.1659266949838" r="681.431006886851" />
<circle stroke="#000000" stroke-width="0.1" fill="none" cx="256" cy="779.311357082183" r="669.9594781598302" />
<circle stroke="#000000" stroke-width="0.1" fill="none" cx="114.57864376269052" cy="967.4182784512032" r="645.8861149080838" />
<circle stroke="#000000" stroke-width="0.1" fill="none" cx="114.57864376269052" cy="939.5637088384022" r="634.4145861810628" />
<circle stroke="#000000" stroke-width="0.1" fill="none" cx="114.57864376269052" cy="911.7091392256016" r="622.9430574540419" />
<circle stroke="#000000" stroke-width="0.1" fill="none" cx="114.57864376269052" cy="883.8545696128008" r="611.4715287270209" />
<circle stroke="#000000" stroke-width="0.1" fill="none" cx="114.57864376269052" cy="856" r="600" />
<circle stroke="#000000" stroke-width="0.1" fill="none" cx="114.57864376269052" cy="828.1454303871992" r="588.528471272979" />
<circle stroke="#000000" stroke-width="0.1" fill="none" cx="114.57864376269052" cy="800.2908607743984" r="577.0569425459581" />
<circle stroke="#000000" stroke-width="0.1" fill="none" cx="114.57864376269052" cy="772.4362911615978" r="565.5854138189372" />
<circle stroke="#000000" stroke-width="0.1" fill="none" cx="114.57864376269052" cy="744.5817215487968" r="554.1138850919162" />
<circle stroke="#000000" stroke-width="0.1" fill="none" cx="397.4213562373095" cy="967.4182784512032" r="645.8861149080838" />
<circle stroke="#000000" stroke-width="0.1" fill="none" cx="397.4213562373095" cy="939.5637088384022" r="634.4145861810628" />
<circle stroke="#000000" stroke-width="0.1" fill="none" cx="397.4213562373095" cy="911.7091392256016" r="622.9430574540419" />
<circle stroke="#000000" stroke-width="0.1" fill="none" cx="397.4213562373095" cy="883.8545696128008" r="611.471528727021" />
<circle stroke="#000000" stroke-width="0.1" fill="none" cx="397.4213562373095" cy="856" r="600" />
<circle stroke="#000000" stroke-width="0.1" fill="none" cx="397.4213562373095" cy="828.1454303871992" r="588.5284712729791" />
<circle stroke="#000000" stroke-width="0.1" fill="none" cx="397.4213562373095" cy="800.2908607743984" r="577.0569425459581" />
<circle stroke="#000000" stroke-width="0.1" fill="none" cx="397.4213562373095" cy="772.4362911615978" r="565.5854138189372" />
<circle stroke="#000000" stroke-width="0.1" fill="none" cx="397.4213562373095" cy="744.5817215487968" r="554.1138850919162" />
<circle stroke="#000000" stroke-width="0.1" fill="none" cx="256" cy="932.688642917817" r="530.0405218401698" />
<circle stroke="#000000" stroke-width="0.1" fill="none" cx="256" cy="904.8340733050162" r="518.568993113149" />
<circle stroke="#000000" stroke-width="0.1" fill="none" cx="256" cy="876.9795036922155" r="507.097464386128" />
<circle stroke="#000000" stroke-width="0.1" fill="none" cx="256" cy="849.1249340794147" r="495.6259356591071" />
<circle stroke="#000000" stroke-width="0.1" fill="none" cx="256" cy="821.270364466614" r="484.1544069320862" />
<circle stroke="#000000" stroke-width="0.1" fill="none" cx="256" cy="793.4157948538132" r="472.6828782050653" />
<circle stroke="#000000" stroke-width="0.1" fill="none" cx="256" cy="765.5612252410124" r="461.2113494780443" />
<circle stroke="#000000" stroke-width="0.1" fill="none" cx="256" cy="737.7066556282117" r="449.73982075102344" />
<circle stroke="#000000" stroke-width="0.1" fill="none" cx="256" cy="709.852086015411" r="438.26829202400256" />
<circle stroke="#000000" stroke-width="0.1" fill="none" cx="241.85786437626905" cy="1026.5295200440514" r="761.6186773962271" />
<circle stroke="#000000" stroke-width="0.1" fill="none" cx="227.7157287525381" cy="1023.0565564907126" r="750.0341180894357" />
<circle stroke="#000000" stroke-width="0.1" fill="none" cx="213.57359312880715" cy="1019.5835929373741" r="738.4495587826443" />
<circle stroke="#000000" stroke-width="0.1" fill="none" cx="199.4314575050762" cy="1016.1106293840355" r="726.864999475853" />
<circle stroke="#000000" stroke-width="0.1" fill="none" cx="185.28932188134524" cy="1012.6376658306967" r="715.2804401690614" />
<circle stroke="#000000" stroke-width="0.1" fill="none" cx="171.1471862576143" cy="1009.1647022773583" r="703.6958808622702" />
<circle stroke="#000000" stroke-width="0.1" fill="none" cx="157.00505063388334" cy="1005.6917387240196" r="692.1113215554788" />
<circle stroke="#000000" stroke-width="0.1" fill="none" cx="142.8629150101524" cy="1002.2187751706809" r="680.5267622486873" />
<circle stroke="#000000" stroke-width="0.1" fill="none" cx="128.72077938642144" cy="998.7458116173424" r="668.942202941896" />
<circle stroke="#000000" stroke-width="0.1" fill="none" cx="241.85786437626905" cy="747.9838239160438" r="646.9033901260179" />
<circle stroke="#000000" stroke-width="0.1" fill="none" cx="227.7157287525381" cy="744.5108603627051" r="635.3188308192265" />
<circle stroke="#000000" stroke-width="0.1" fill="none" cx="213.57359312880715" cy="741.0378968093664" r="623.734271512435" />
<circle stroke="#000000" stroke-width="0.1" fill="none" cx="199.4314575050762" cy="737.5649332560279" r="612.1497122056437" />
<circle stroke="#000000" stroke-width="0.1" fill="none" cx="185.28932188134524" cy="734.0919697026892" r="600.5651528988523" />
<circle stroke="#000000" stroke-width="0.1" fill="none" cx="171.1471862576143" cy="730.6190061493506" r="588.9805935920609" />
<circle stroke="#000000" stroke-width="0.1" fill="none" cx="157.00505063388334" cy="727.146042596012" r="577.3960342852695" />
<circle stroke="#000000" stroke-width="0.1" fill="none" cx="142.8629150101524" cy="723.6730790426734" r="565.8114749784781" />
<circle stroke="#000000" stroke-width="0.1" fill="none" cx="128.72077938642144" cy="720.2001154893348" r="554.2269156716868" />
<circle stroke="#000000" stroke-width="0.1" fill="none" cx="383.27922061357856" cy="991.7998845106652" r="645.7730843283132" />
<circle stroke="#000000" stroke-width="0.1" fill="none" cx="369.1370849898476" cy="988.3269209573266" r="634.1885250215219" />
<circle stroke="#000000" stroke-width="0.1" fill="none" cx="354.99494936611666" cy="984.853957403988" r="622.6039657147305" />
<circle stroke="#000000" stroke-width="0.1" fill="none" cx="340.8528137423857" cy="981.3809938506494" r="611.0194064079391" />
<circle stroke="#000000" stroke-width="0.1" fill="none" cx="326.71067811865476" cy="977.9080302973108" r="599.4348471011477" />
<circle stroke="#000000" stroke-width="0.1" fill="none" cx="312.5685424949238" cy="974.4350667439721" r="587.8502877943563" />
<circle stroke="#000000" stroke-width="0.1" fill="none" cx="298.42640687119285" cy="970.9621031906336" r="576.265728487565" />
<circle stroke="#000000" stroke-width="0.1" fill="none" cx="284.2842712474619" cy="967.4891396372949" r="564.6811691807735" />
<circle stroke="#000000" stroke-width="0.1" fill="none" cx="270.14213562373095" cy="964.0161760839562" r="553.0966098739821" />
<circle stroke="#000000" stroke-width="0.1" fill="none" cx="383.27922061357856" cy="713.2541883826576" r="531.057797058104" />
<circle stroke="#000000" stroke-width="0.1" fill="none" cx="369.1370849898476" cy="709.7812248293191" r="519.4732377513127" />
<circle stroke="#000000" stroke-width="0.1" fill="none" cx="354.99494936611666" cy="706.3082612759804" r="507.88867844452125" />
<circle stroke="#000000" stroke-width="0.1" fill="none" cx="340.8528137423857" cy="702.8352977226418" r="496.30411913772986" />
<circle stroke="#000000" stroke-width="0.1" fill="none" cx="326.71067811865476" cy="699.3623341693033" r="484.7195598309385" />
<circle stroke="#000000" stroke-width="0.1" fill="none" cx="312.5685424949238" cy="695.8893706159645" r="473.135000524147" />
<circle stroke="#000000" stroke-width="0.1" fill="none" cx="298.42640687119285" cy="692.4164070626259" r="461.5504412173557" />
<circle stroke="#000000" stroke-width="0.1" fill="none" cx="284.2842712474619" cy="688.9434435092874" r="449.9658819105643" />
<circle stroke="#000000" stroke-width="0.1" fill="none" cx="270.14213562373095" cy="685.4704799559488" r="438.3813226037729" />
</svg>