<?xml version="1.0" encoding="utf-8"?>
<!-- Generator: Adobe Illustrator 16.0.0, SVG Export Plug-In . SVG Version: 6.00 Build 0)  -->
<!DOCTYPE svg PUBLIC "-//W3C//DTD SVG 1.1 Basic//EN" "http://www.w3.org/Graphics/SVG/1.1/DTD/svg11-basic.dtd">
<svg version="1.1" baseProfile="basic" id="Layer_1"
	 xmlns="http://www.w3.org/2000/svg" xmlns:xlink="http://www.w3.org/1999/xlink" x="0px" y="0px" width="400px" height="900px"
	 viewBox="0 0 400 900" xml:space="preserve">
<rect width="400" height="900"/>
<path fill="#FFFFFF" d="M46.2,51.4c0,0.4-0.2,0.6-0.5,0.6c-0.1-0.1-0.2-0.2-0.2-0.2s-0.1,0-0.1-0.1c0,0,0-0.1,0-0.1s0-0.1,0-0.2
	c0.1-0.1,0.2-0.2,0.2-0.2s0.1,0,0.1,0c0.1,0,0.1,0.1,0.2,0.1S46.1,51.4,46.2,51.4z M45.7,54.4c0,0,0.1,0,0.1,0s0.1,0,0.1,0
	c0,0,0.1,0.1,0.1,0.1s0.1,0,0.1,0.1c0.1,0.1,0.1,0.2,0.1,0.3c-0.1,0.2-0.1,0.2-0.2,0.3s0,0-0.1,0.1c-0.2,0-0.3,0-0.4,0
	s-0.1-0.1-0.1-0.1c-0.1-0.2-0.1-0.4,0-0.4S45.6,54.4,45.7,54.4z M46.1,48.7c0-0.2,0.1-0.3,0.1-0.4c0.2-0.1,0.3-0.1,0.4-0.1
	s0.1,0,0.2,0c0.1,0.2,0.2,0.3,0.1,0.3s0,0.1,0,0.2C46.7,49,46.6,49,46.5,49s-0.1,0-0.2,0c0-0.1,0-0.1-0.1-0.1S46.1,48.8,46.1,48.7z
	 M46.7,57.4c0.1,0,0.1,0,0.2,0s0.1,0,0.1,0c0.1,0.1,0.2,0.1,0.2,0.1s0.1,0,0.1,0.1c0,0.1,0,0.2,0,0.2s0,0.1-0.1,0.2L47,58.1
	c-0.1,0-0.2,0-0.2-0.1s-0.1,0-0.2,0c-0.1-0.1-0.1-0.2-0.1-0.3s0-0.1,0-0.2L46.7,57.4z M48.1,45.8c0.2,0,0.3,0.1,0.4,0.2
	s0.1,0.1,0.1,0.2c0,0.1,0,0.1-0.1,0.2s-0.1,0.1-0.2,0.1c-0.1,0.1-0.2,0.1-0.3,0.1s-0.1-0.1-0.2-0.2c0-0.1-0.1-0.1-0.1-0.2
	s0-0.1,0-0.2s0.1-0.2,0.2-0.2L48.1,45.8z M49.4,60.2c0,0-0.1,0-0.2,0.1s-0.1,0-0.2,0c-0.1-0.1-0.2-0.2-0.3-0.3
	c0-0.2,0.1-0.3,0.2-0.5c0.1,0,0.3,0,0.4,0.1s0.2,0.2,0.2,0.3c0,0.1,0,0.1-0.1,0.2S49.4,60.1,49.4,60.2z M50.9,44.5
	c0,0.1,0,0.1,0,0.2s0,0.1,0,0.2c-0.1,0-0.1,0.1-0.2,0.2S50.5,45,50.4,45c-0.1-0.1-0.1-0.1-0.2-0.2s0,0,0,0c-0.1-0.2-0.1-0.3-0.1-0.3
	s0.1-0.1,0.1-0.2c0.1-0.1,0.2-0.1,0.3,0S50.8,44.4,50.9,44.5z M51.7,61.1c0.1,0,0.1,0,0.2-0.1s0.1-0.1,0.2-0.1
	c0.2,0,0.3,0.1,0.4,0.3s0,0.3-0.1,0.4c-0.1,0-0.2,0.1-0.2,0.1s-0.1,0-0.1,0c-0.1,0-0.2-0.1-0.3-0.2c-0.1-0.1-0.1-0.2-0.1-0.2
	S51.8,61.1,51.7,61.1z M53.4,43.4c0.1,0.1,0.2,0.2,0.3,0.2c0,0,0,0.1,0,0.1s0,0.1,0,0.1c0,0.1-0.1,0.2-0.2,0.2s-0.2,0.1-0.3,0.1
	C53.1,44.1,53,44,53,44s-0.1,0-0.1-0.1c0-0.1,0.1-0.2,0.1-0.2s0,0,0-0.1c0.1-0.1,0.2-0.2,0.3-0.2S53.4,43.4,53.4,43.4z M55,61.6
	c-0.1-0.1-0.2-0.1-0.3-0.2c0,0,0-0.1,0-0.1s0-0.1,0-0.2c0.1-0.1,0.2-0.2,0.2-0.2s0.1,0,0.1,0s0.1,0,0.1,0s0.1,0.1,0.1,0.1
	c0,0,0.1,0.1,0.1,0.2s0,0.2,0,0.2C55.3,61.5,55.2,61.5,55,61.6z M56.4,44c0,0.2-0.1,0.2-0.1,0.2s-0.1,0-0.1,0c0,0.2,0,0.3-0.1,0.3
	s-0.2,0-0.3,0c0-0.1-0.1-0.2-0.1-0.2s0-0.2,0-0.2c0.1-0.1,0.2-0.1,0.2-0.2c0.2,0,0.3,0,0.4,0.1L56.4,44z M58.3,60.2
	c-0.2,0-0.3,0.1-0.4,0.1s-0.1,0-0.2,0s-0.1,0-0.1-0.1s-0.1-0.1-0.2-0.1c0.1-0.2,0.1-0.3,0.2-0.3c0.2-0.1,0.3-0.1,0.4-0.1
	c0.1,0.1,0.2,0.2,0.2,0.3S58.3,60.1,58.3,60.2z M58.2,45.8c-0.1,0-0.2-0.1-0.3-0.1s-0.2-0.1-0.2-0.2c0-0.1,0-0.1,0-0.2
	s0-0.1,0.1-0.2c0.2-0.1,0.4-0.2,0.4-0.1s0.2,0.1,0.2,0.1c0,0.2,0,0.2,0,0.3s0,0,0,0.1C58.3,45.7,58.3,45.8,58.2,45.8
	C58.3,45.8,58.2,45.8,58.2,45.8z M60.2,47c-0.1,0.2-0.1,0.3-0.2,0.3s-0.1,0.1-0.1,0.1c-0.1,0-0.1,0-0.2,0s-0.1,0-0.2,0
	c0-0.1-0.1-0.1-0.1-0.2s-0.1-0.1-0.1-0.2c0.1-0.2,0.1-0.3,0.1-0.2s0,0,0.1,0c0.2,0,0.3-0.1,0.3-0.1s0.1,0,0.1,0c0,0,0.1,0.1,0.1,0.1
	S60.1,47,60.2,47z M60.3,57.8c0,0.2-0.1,0.3-0.2,0.3c-0.1,0.1-0.2,0.1-0.3,0.1s-0.1,0-0.2-0.1c-0.1-0.1-0.1-0.2-0.1-0.3
	c0-0.2,0.1-0.3,0.2-0.3s0.2-0.1,0.3,0c0,0.1,0,0.1,0.1,0.2S60.3,57.7,60.3,57.8z M61.3,49.7c-0.1,0.1-0.2,0.2-0.4,0.1
	c-0.1,0-0.1,0-0.2-0.1s-0.1-0.1-0.1-0.1c0-0.1,0-0.2,0-0.2s0-0.1,0-0.2c0.1,0,0.1-0.1,0.2-0.1s0.2-0.1,0.3,0
	c0.1,0.2,0.2,0.3,0.2,0.4S61.3,49.6,61.3,49.7z M61.5,54.8c0,0.1,0.1,0.2,0.1,0.2s0,0.1,0,0.2c-0.1,0.1-0.3,0.2-0.6,0.1
	c0-0.1-0.1-0.1-0.1-0.2s0-0.1,0-0.3c0,0,0.1-0.1,0.1-0.1s0.1-0.1,0.1-0.1c0.1,0,0.2,0,0.2,0S61.4,54.7,61.5,54.8z M61.8,51.8
	c0,0,0,0.1,0,0.2s0,0.1,0,0.2c-0.1,0.2-0.3,0.3-0.6,0.2c-0.1-0.2-0.2-0.3-0.2-0.4s0-0.1,0.1-0.3c0,0,0.1,0,0.2,0s0.1,0,0.2,0
	C61.6,51.8,61.7,51.8,61.8,51.8z"/>
<path fill="#FFFFFF" d="M65.5,49.8c0.1,0,0.2,0,0.3,0s0.2,0,0.3,0c0.1,0.1,0.1,0.1,0.1,0.2s0,0.2,0,0.3c-0.1,0-0.1,0-0.2,0.1
	s-0.1,0.1-0.2,0.1c-0.1,0-0.2-0.1-0.2-0.1s-0.1-0.1-0.2-0.2c0.1-0.1,0.1-0.2,0.1-0.2s0,0,0-0.1L65.5,49.8z M65.6,43.4
	c0.2,0,0.3,0,0.3,0s0.1,0.1,0.2,0.1c0.1,0.2,0.1,0.4,0,0.5s-0.1,0.2-0.2,0.2c-0.1,0-0.1,0-0.3,0s-0.2-0.1-0.2-0.1
	c0-0.2-0.1-0.2,0-0.3s0-0.1,0-0.1c0-0.1,0-0.1,0.1-0.1S65.6,43.5,65.6,43.4z M66.2,47.7c0,0,0,0.1,0,0.1s0,0.1,0,0.1
	c0,0.1,0,0.1-0.1,0.2s-0.1,0.1,0,0.2c-0.2,0-0.4,0-0.5-0.1s-0.2-0.2-0.2-0.4c0.1-0.1,0.2-0.1,0.2-0.1s0,0,0,0c0.1,0,0.2,0,0.3,0
	S66.1,47.7,66.2,47.7z M66.2,52.6c0,0-0.1,0.1-0.2,0.1s-0.1,0.1-0.2,0.1c-0.2-0.2-0.3-0.3-0.4-0.3c0-0.2,0-0.3,0.1-0.3
	s0.1-0.1,0.1-0.1c0.1,0,0.1,0,0.2,0s0.1,0,0.1,0c0.1,0.1,0.2,0.2,0.3,0.2c0,0.1,0,0.2,0,0.2S66.1,52.5,66.2,52.6z M66.1,60.5
	c0,0,0.1,0.1,0.1,0.1s0,0.1,0,0.1c0.1,0.2,0.1,0.3,0,0.4c-0.1,0-0.1,0.1-0.2,0.1s-0.2,0-0.3,0c0,0-0.1-0.1-0.1-0.1s-0.1-0.1-0.1-0.1
	c0-0.1,0-0.2,0-0.3s0.1-0.1,0.1-0.2c0.1,0,0.2,0,0.2,0S66,60.5,66.1,60.5z M65.5,46.2c0-0.1-0.1-0.1-0.1-0.2s0-0.2,0-0.3
	c0.2-0.1,0.3-0.1,0.5-0.1c0,0.1,0.1,0.1,0.1,0.1s0.1,0.1,0.1,0.1c0,0.2,0,0.3-0.1,0.3S66,46.3,66,46.3c-0.1,0-0.1,0-0.2,0
	S65.6,46.2,65.5,46.2z M66.3,58.8c0,0.1-0.1,0.1-0.1,0.2s0,0.1,0,0.2c-0.1,0.1-0.3,0.1-0.4,0c0,0-0.1-0.1-0.1-0.1S65.5,59,65.5,59
	c0-0.1,0-0.1,0-0.1s0-0.1,0-0.2c0.2-0.1,0.3-0.2,0.4-0.2s0.1,0,0.2,0C66.1,58.7,66.2,58.8,66.3,58.8z M66.2,54.3c0,0.1,0,0.1,0,0.2
	s0,0.1,0,0.2c-0.2,0.2-0.3,0.2-0.5,0.2s-0.2-0.1-0.3-0.1c0-0.2,0-0.3,0-0.3s0-0.1,0-0.1c0.1-0.1,0.2-0.1,0.3-0.1
	S66.1,54.3,66.2,54.3z M66.2,57.1c-0.2,0-0.4,0-0.5,0c-0.1-0.1-0.1-0.2-0.2-0.3c0-0.1,0-0.2,0-0.2s0-0.1,0.1-0.2c0.1,0,0.2,0,0.3,0
	s0.1,0,0.2,0C66.1,56.7,66.2,56.9,66.2,57.1z M68.9,52.4c-0.2,0.2-0.2,0.3-0.3,0.3s-0.1,0.1-0.2,0.1c-0.1,0-0.1,0-0.2,0
	s-0.1,0-0.2,0c0-0.1,0-0.1-0.1-0.1s-0.1-0.1-0.1-0.1c0.1-0.2,0.3-0.3,0.4-0.3s0.3,0.1,0.3,0.2L68.9,52.4z M71.4,52.7
	c0,0-0.1,0.1-0.1,0.1s-0.1,0.1-0.1,0.1c-0.2,0-0.3,0-0.4,0s-0.1-0.1-0.2-0.2c0-0.1,0-0.1,0-0.2s-0.1-0.1-0.1-0.1
	c0.2,0,0.3-0.1,0.4-0.2s0.2-0.1,0.3-0.1c0.1,0.1,0.2,0.2,0.2,0.2s0,0,0,0c0,0.1,0,0.1,0,0.2S71.3,52.6,71.4,52.7z M73.8,52.4
	c0,0.1,0,0.1,0,0.2s0,0.1,0,0.2c-0.1,0.1-0.2,0.2-0.3,0.2s-0.2,0-0.3,0c0,0-0.1-0.1-0.1-0.1s-0.1-0.1-0.1-0.1c0,0,0-0.1,0-0.2
	s0.1-0.1,0.1-0.2c0.1-0.1,0.2-0.1,0.3-0.1S73.7,52.3,73.8,52.4z M75.8,52.3c0.1,0.1,0.2,0.2,0.1,0.3s0,0.1,0,0.1
	c-0.1,0.1-0.2,0.2-0.2,0.2s-0.1,0-0.2,0c-0.1,0-0.2,0-0.3,0c-0.1,0-0.1-0.1-0.1-0.2s0-0.2,0-0.3C75.3,52.3,75.5,52.3,75.8,52.3z
	 M77.9,52.3c0.1,0.2,0.1,0.3,0.1,0.4s0,0.1-0.1,0.2c-0.1,0-0.1,0-0.2,0s0,0-0.1,0c-0.2,0-0.3-0.1-0.3-0.1s-0.1-0.1-0.1-0.1
	c0-0.2,0-0.3,0.1-0.4s0.1-0.1,0.2-0.1c0.1,0,0.2,0,0.3,0.1S77.9,52.3,77.9,52.3z M79.8,47.8c0,0.1,0.1,0.1,0.1,0.2s0,0.2,0.1,0.2
	c-0.1,0.1-0.2,0.1-0.3,0.2s-0.2,0.1-0.4,0c0,0-0.1-0.1-0.1-0.2s-0.1-0.1-0.1-0.1c0.1-0.1,0.1-0.2,0.1-0.2s0,0,0-0.1
	c0.2-0.1,0.3-0.2,0.3-0.1S79.8,47.8,79.8,47.8z M79.3,54.9c0-0.1,0-0.1,0-0.2s0-0.1-0.1-0.2c0.1,0,0.1,0,0.1-0.1s0-0.1,0.1-0.1
	c0.1,0,0.2,0,0.2,0s0.2,0,0.2,0c0,0.1,0.1,0.2,0.1,0.3c0,0.2,0,0.3-0.1,0.3S79.7,55,79.6,55c-0.1,0-0.1,0-0.2-0.1
	S79.4,54.9,79.3,54.9z M79.9,60.6c0,0.1,0,0.1,0,0.2s0,0.1,0,0.2c-0.1,0.1-0.1,0.2-0.2,0.2s-0.1,0.1-0.1,0.1c-0.1,0-0.1-0.1-0.2-0.1
	s-0.1,0-0.2-0.1c-0.1,0-0.1-0.1-0.1-0.2s0-0.1,0-0.2c0-0.2,0-0.2,0.1-0.2s0,0,0-0.1c0.1-0.1,0.2-0.1,0.3-0.1S79.8,60.5,79.9,60.6z
	 M79.4,57.1c0,0-0.1-0.1-0.1-0.2s0-0.1-0.1-0.2c0.1-0.2,0.1-0.3,0.3-0.4c0.1,0,0.1,0,0.2,0s0.1,0.1,0.2,0c0,0.1,0.1,0.1,0.1,0.2
	s0,0.2,0,0.3s-0.1,0.1-0.1,0.2s-0.1,0-0.1,0.1C79.6,57.1,79.5,57.1,79.4,57.1z M80,58.5c0,0.1,0,0.2,0,0.3s0,0.2,0,0.3
	c-0.2,0.1-0.3,0.1-0.5,0.1c-0.1-0.1-0.2-0.2-0.2-0.2s0-0.1-0.1-0.2c0,0,0.1-0.1,0.1-0.1s0-0.1,0.1-0.1c0,0,0.1,0,0.1,0s0.1,0,0.1,0
	c0.1,0,0.1,0,0.2,0S80,58.5,80,58.5z M80,52.2c0,0.1,0,0.2,0,0.4s-0.1,0.2-0.2,0.3c-0.1,0-0.1,0-0.2,0s-0.1,0-0.1,0
	c0,0-0.1-0.1-0.1-0.1s-0.1-0.1-0.1-0.2c0-0.1,0-0.1,0-0.2s0-0.1,0-0.1c0.1-0.1,0.1-0.1,0.2-0.2s0.1,0,0.2,0c0,0,0.1,0,0.2,0.1
	S79.9,52.2,80,52.2z M80,46.2c-0.1,0-0.2,0-0.2,0.1s-0.2,0-0.2,0c-0.2-0.1-0.3-0.2-0.2-0.5c0.1-0.1,0.1-0.1,0.2-0.1s0.2,0,0.3,0
	c0,0,0.1,0.1,0.1,0.1s0.1,0.1,0.1,0.2c0,0,0,0.1,0,0.1S80,46.2,80,46.2z M80.1,43.7c0,0.1,0,0.2,0,0.2s0,0.1,0,0.2
	c-0.1,0-0.1,0-0.2,0s-0.1,0.1-0.2,0.1c0,0-0.1-0.1-0.2-0.1s-0.1-0.1-0.1-0.2c0,0,0-0.1,0-0.1s0-0.1,0.1-0.2c0,0,0.1-0.1,0.2-0.1
	s0.2,0,0.2,0.1c0.1,0,0.1,0,0.1,0S80,43.7,80.1,43.7z M79.5,50c0,0.1,0.1,0.1,0.3,0.1c0,0,0.1,0.1,0.1,0.1s0.1,0.1,0.1,0.1v0.3
	c-0.1,0-0.1,0.1-0.2,0.1s-0.1,0.1-0.3,0c-0.1-0.1-0.2-0.2-0.2-0.2s0,0,0-0.1c0-0.1,0-0.2,0-0.3s0-0.1,0-0.1L79.5,50z"/>
<path fill="#FFFFFF" d="M94.5,55.9c0,0.2,0,0.3-0.2,0.4s-0.3,0.1-0.4,0c0,0-0.1-0.1-0.1-0.1s0-0.1-0.1-0.1c0-0.1,0.1-0.1,0.1-0.2
	s0.1-0.1,0.1-0.2h0.3c0.1,0,0.1,0.1,0.1,0.1S94.5,55.9,94.5,55.9z M94.6,58.3c0,0.1-0.1,0.2-0.1,0.2s0,0.1,0,0.1
	c0,0-0.1,0.1-0.1,0.1s-0.1,0.1-0.2,0.1c-0.1,0-0.2,0-0.2-0.1s-0.1-0.1-0.2-0.1c0-0.2,0-0.3,0.1-0.3c0.2-0.1,0.3-0.2,0.3-0.2
	s0.1,0,0.2,0c0,0,0,0.1,0.1,0.1S94.5,58.2,94.6,58.3z M94.3,61.2c-0.1,0-0.2,0-0.3,0S93.9,61,93.8,61c0-0.1,0-0.1,0-0.2s0-0.1,0-0.1
	c0.1-0.1,0.1-0.2,0.1-0.2s0,0,0,0c0.2,0,0.4,0,0.5,0.1C94.6,60.8,94.5,61,94.3,61.2z M93.8,46.3c0,0,0.1-0.1,0.1-0.1
	s0.1-0.1,0.1-0.1c0.1,0,0.2-0.1,0.3-0.1c0.2,0.1,0.2,0.2,0.3,0.2s0,0.1,0,0.2c-0.1,0.1-0.1,0.2-0.1,0.2s0,0.1,0,0.1
	c-0.1,0-0.1,0-0.1,0s-0.1,0-0.1,0c-0.1,0-0.1-0.1-0.2-0.1s-0.1-0.1-0.2-0.1L93.8,46.3z M94.5,50.8c0,0.2,0.1,0.2,0.2,0.3l-0.1,0.3
	c-0.2,0.1-0.3,0.2-0.3,0.2s-0.1,0-0.2,0c0,0-0.1-0.1-0.1-0.2s0-0.2-0.1-0.3c0.2-0.1,0.3-0.2,0.3-0.2s0.1,0,0.2,0L94.5,50.8z
	 M93.9,53.9c0,0-0.1-0.1-0.1-0.2s0-0.2,0-0.3c0.1,0,0.1-0.1,0.2-0.1s0.1-0.1,0.2-0.1c0.2,0,0.3,0.1,0.4,0.4
	c-0.1,0.2-0.2,0.3-0.3,0.3S94.1,53.9,93.9,53.9z M94.6,48.6c0,0.1,0,0.2,0,0.3s-0.1,0.1-0.2,0.2s-0.2,0-0.2,0S94,49.1,93.9,49
	c0-0.1,0-0.1,0-0.2s0-0.1,0-0.2c0.1-0.2,0.2-0.3,0.2-0.3c0,0,0.1,0,0.2,0s0.1,0,0.2,0.1C94.5,48.5,94.5,48.6,94.6,48.6
	C94.6,48.6,94.6,48.6,94.6,48.6z M94.7,43.8c0,0.1,0,0.2,0,0.3s0,0.1,0,0.1c0,0,0,0.1,0,0.1s0,0.1,0,0.2c0,0-0.1,0-0.2,0
	s-0.2,0-0.2,0c-0.1-0.1-0.1-0.1-0.2-0.1s-0.1-0.1-0.1-0.1s0-0.1,0-0.3c0.1-0.1,0.2-0.2,0.3-0.2s0.1-0.1,0.2-0.1L94.7,43.8z
	 M96.3,45.3c0,0,0,0.1,0,0.1s0,0.1,0,0.2c-0.1,0-0.1,0-0.1,0s-0.1,0.1-0.1,0.1c-0.1,0-0.2,0-0.3,0c-0.1-0.1-0.1-0.1-0.2-0.2
	s-0.1-0.2,0-0.3c0.1-0.1,0.1-0.2,0.1-0.2s0,0,0.1-0.1s0.1,0,0.1,0s0.1,0,0.2,0c0,0.1,0.1,0.1,0.1,0.2S96.2,45.3,96.3,45.3z
	 M97.3,46.9c0.1,0.2,0.2,0.4,0.2,0.4c-0.1,0.2-0.1,0.2-0.2,0.3s-0.1,0.1-0.1,0.1c0,0-0.1,0-0.1,0s-0.1,0-0.2,0
	c0-0.1-0.1-0.2-0.1-0.2s0-0.2-0.1-0.2C97,47,97.1,47,97.2,47S97.3,47,97.3,46.9z M98.7,48.6c0,0.1,0.1,0.1,0.1,0.1s0.1,0.1,0.1,0.1
	c0,0.1,0,0.2-0.1,0.3c0,0-0.1,0.1-0.1,0.1s-0.1,0.1-0.1,0.1c-0.1,0-0.2,0-0.2,0s0,0,0,0c-0.1-0.1-0.2-0.2-0.3-0.2c0,0,0-0.1,0.1-0.1
	s0-0.1,0-0.2c0.2-0.1,0.3-0.2,0.3-0.1S98.6,48.7,98.7,48.6z M99.9,51.1c0,0-0.1,0.1-0.1,0.1s-0.1,0-0.1,0.1c-0.2,0-0.3-0.1-0.4-0.2
	s-0.1-0.2-0.1-0.3c0-0.2,0.1-0.3,0.3-0.3s0.3,0.1,0.4,0.2C100,50.9,100,51,99.9,51.1z M101.2,52.4c0.1,0.2,0.2,0.3,0.2,0.3
	c0,0.1,0,0.1,0,0.2s-0.1,0.1-0.1,0.2c-0.1,0-0.1,0-0.2,0s-0.1,0-0.2,0c-0.1-0.1-0.2-0.2-0.2-0.2s0-0.1,0-0.1c0-0.1,0.1-0.1,0.1-0.2
	s0-0.1,0.1-0.1c0.1,0,0.1,0,0.2,0S101.1,52.3,101.2,52.4z M102.2,54.3c0,0,0.1,0,0.1,0s0.1,0,0.2,0.1c0.1,0.2,0.2,0.4,0.1,0.5
	c-0.1,0.1-0.2,0.2-0.2,0.2s-0.1,0-0.1-0.1c-0.1-0.1-0.2-0.1-0.3-0.2s0-0.1,0-0.2c0-0.1,0-0.1,0.1-0.2S102.1,54.3,102.2,54.3z
	 M103.7,53.2c-0.1,0-0.1-0.1-0.2-0.1s-0.1-0.1-0.2-0.1c0,0,0-0.1,0-0.1s0-0.1-0.1-0.1c0,0,0.1-0.1,0.1-0.1s0.1-0.1,0.1-0.1
	c0.1-0.1,0.2-0.1,0.2-0.1s0,0,0,0c0.2,0.1,0.3,0.1,0.3,0.2s0,0.1,0.1,0.1c0,0.1,0,0.1,0,0.2s0,0.1,0,0.2c0,0-0.1,0.1-0.2,0.1
	S103.7,53.1,103.7,53.2z M105,51.3c0,0-0.1,0-0.1,0s-0.1,0-0.1,0c-0.2-0.1-0.2-0.2-0.2-0.2s0,0,0-0.1c0-0.1,0-0.1,0-0.2s0-0.1,0-0.1
	c0-0.1,0.1-0.2,0.3-0.2s0.3,0,0.4,0.1c0,0.1,0,0.1,0,0.1s0,0.1,0,0.1c0,0.1,0,0.1-0.1,0.2S105.1,51.2,105,51.3z M105.8,49.2
	c0-0.2,0-0.3,0-0.3c0.1-0.1,0.2-0.2,0.2-0.3s0.2,0,0.2,0c0.1,0.1,0.2,0.2,0.2,0.3s0,0.1,0,0.1c-0.1,0.1-0.1,0.2-0.2,0.2
	s-0.1,0-0.1,0C106,49.3,105.9,49.3,105.8,49.2C105.8,49.3,105.8,49.3,105.8,49.2z M107.5,47.1c0,0.2,0,0.4-0.1,0.4s-0.1,0.1-0.1,0.1
	c-0.2,0-0.3,0-0.3,0s0,0,0,0c0-0.1-0.1-0.2-0.1-0.2s-0.1-0.1-0.1-0.2c0.1,0,0.1-0.1,0.2-0.1s0.1-0.1,0.1-0.1c0.1,0,0.2,0.1,0.3,0.1
	S107.5,47.1,107.5,47.1z M108,45.8c0-0.1,0-0.1,0-0.2s0-0.1,0-0.1c0.1-0.2,0.2-0.2,0.2-0.3s0.1,0,0.2,0c0.1,0.1,0.2,0.2,0.2,0.3
	s0,0.1,0,0.1c0,0.1-0.1,0.2-0.1,0.2s-0.1,0-0.1,0c-0.2,0-0.3,0-0.3,0S108,45.8,108,45.8z M109.7,43.6c0.1,0,0.1,0.1,0.1,0.2
	s0.1,0.1,0.2,0.1c0,0.1,0,0.1,0,0.2s0,0.1,0,0.2c-0.2,0.1-0.4,0.2-0.5,0.1c-0.1-0.1-0.2-0.2-0.2-0.2s0-0.1,0-0.1
	c0-0.1,0.1-0.2,0.1-0.3S109.6,43.5,109.7,43.6z M109.9,55.8c0.1,0.1,0.1,0.2,0.2,0.2s0.1,0.1,0.1,0.1c0,0.1,0,0.1-0.1,0.2
	s-0.1,0.1-0.1,0.2c-0.1,0-0.1,0-0.2,0s-0.1,0-0.2,0c-0.1-0.2-0.2-0.3-0.2-0.3s0,0-0.1-0.1c0-0.1,0.1-0.2,0.1-0.2s0.2-0.1,0.3,0
	L109.9,55.8z M110.2,58.4c0,0.1-0.1,0.2-0.1,0.2s-0.1,0.1-0.1,0.1c-0.3,0.1-0.4,0.1-0.5,0c0-0.1,0-0.1,0-0.2s0-0.1,0-0.2
	c0.1-0.1,0.2-0.2,0.3-0.2s0.1,0,0.2,0c0,0,0.1,0.1,0.1,0.2S110.1,58.4,110.2,58.4z M110,54.1c0,0-0.1,0-0.1,0s-0.1,0-0.1,0
	c-0.1,0-0.1,0-0.1-0.1s-0.1-0.1-0.1-0.1c0-0.1,0-0.2,0-0.2s0,0,0-0.1c0.1-0.2,0.1-0.3,0.1-0.3s0,0,0,0c0.1,0,0.1,0,0.2,0
	s0.1,0,0.2,0c0.1,0.1,0.2,0.2,0.2,0.2s0,0.1,0,0.1c0,0.1,0,0.1-0.1,0.2S110,54.1,110,54.1z M110.1,51.1c0.1,0.4,0,0.6-0.1,0.7
	c-0.2,0-0.3-0.1-0.4-0.1s-0.1-0.1-0.2-0.2c0-0.1,0-0.2,0.1-0.3s0.1-0.1,0.2-0.2c0.1,0,0.1,0,0.2,0S110,51.1,110.1,51.1z M109.8,61.3
	c-0.1,0-0.1-0.1-0.2-0.1s-0.1-0.1-0.1-0.1c0-0.1,0-0.2,0-0.2s0-0.1,0-0.2c0.1,0,0.1,0,0.2-0.1s0.1-0.1,0.2-0.1
	c0.1,0.1,0.1,0.1,0.2,0.2s0.1,0.1,0.1,0.3c0,0.1-0.1,0.2-0.1,0.2S109.9,61.2,109.8,61.3z M109.6,49.3c0-0.1,0-0.1,0-0.2s0-0.1,0-0.1
	c0-0.1,0-0.2,0-0.2s0,0,0-0.1c0.1,0,0.2-0.1,0.3-0.1s0.1,0,0.2,0s0.1,0.1,0.2,0.1s0.1,0.1,0.1,0.1c0,0.1,0,0.2-0.1,0.3
	c0,0.1-0.1,0.2-0.2,0.2c-0.2,0-0.3,0-0.3,0S109.6,49.4,109.6,49.3z M109.6,46.3c0.2-0.1,0.3-0.2,0.4-0.2s0.1,0,0.2,0
	c0,0.1,0.1,0.1,0.1,0.2s0.1,0.1,0.1,0.1l-0.1,0.3c-0.1,0.1-0.2,0.2-0.2,0.2c0,0-0.1,0-0.1,0s-0.1,0-0.1,0c-0.1-0.1-0.1-0.2-0.1-0.2
	s0-0.1,0-0.2L109.6,46.3z"/>
<path fill="#FFFFFF" d="M113.5,43.9c0,0.1,0,0.2,0,0.2s0,0.2,0,0.2c-0.1,0-0.2,0-0.4,0s-0.2,0-0.4-0.1c-0.1-0.2-0.1-0.3-0.1-0.3
	s0-0.1,0-0.1c0.1-0.1,0.2-0.2,0.3-0.2s0.1,0,0.1,0c0.1,0,0.2,0.1,0.3,0.1S113.5,43.9,113.5,43.9z M115,46.3
	c-0.1,0.1-0.2,0.1-0.3,0.1s-0.3,0-0.4,0c-0.1-0.2-0.1-0.4-0.1-0.5c0-0.1,0.1-0.2,0.2-0.2c0,0,0.1,0,0.1,0s0.1,0,0.2,0
	c0.1,0,0.1,0.1,0.2,0.2s0.1,0.1,0.1,0.2L115,46.3z M116.4,47.8c0,0,0,0.1,0,0.3c-0.1,0.2-0.2,0.3-0.2,0.3s-0.1,0-0.1,0
	c-0.1,0-0.2,0-0.2,0s-0.1-0.1-0.2-0.1c0-0.5,0.1-0.7,0.5-0.7C116.1,47.7,116.2,47.8,116.4,47.8z M117.7,50c0.2,0.2,0.2,0.3,0.2,0.4
	c-0.1,0.1-0.1,0.2-0.1,0.2c-0.1,0.1-0.2,0.1-0.2,0.1s0,0-0.1,0c-0.1,0-0.1,0-0.2,0s-0.1-0.1-0.2-0.2c0-0.1,0-0.1,0-0.2s0-0.1,0-0.1
	c0-0.1,0.1-0.2,0.2-0.2S117.6,50,117.7,50z M119.6,54.9c0,0.2-0.1,0.3-0.1,0.3s0,0.1,0,0.2c0,0-0.1,0-0.1,0.1s-0.1,0-0.1,0.1
	c-0.1,0-0.2,0-0.2,0s-0.1-0.1-0.2-0.1c0-0.1,0-0.2-0.1-0.3c0-0.3,0.2-0.4,0.6-0.4C119.4,54.8,119.5,54.9,119.6,54.9z M119.2,57.6
	c0.2,0.1,0.2,0.2,0.3,0.2s0,0,0.1,0.1c0,0,0,0.1,0,0.1s0,0.1,0.1,0.2c0,0-0.1,0.1-0.2,0.2s-0.1,0.1-0.2,0.1c0,0-0.1,0-0.2,0
	s-0.2-0.1-0.2-0.1c-0.1-0.2-0.1-0.3-0.1-0.3s0-0.1,0-0.2c0.1,0,0.2-0.1,0.2-0.1s0-0.1,0.1-0.1L119.2,57.6z M119.6,60.7
	c0,0,0,0.1,0,0.1s0,0.1,0,0.1c-0.1,0.1-0.1,0.2-0.2,0.2c0,0-0.1,0-0.1,0s-0.1,0-0.1,0c-0.1,0-0.1,0-0.2,0s-0.1-0.1-0.2-0.1
	c-0.1-0.2-0.1-0.3,0-0.5c0.1,0,0.1-0.1,0.2-0.1s0.1-0.1,0.2-0.1C119.3,60.5,119.4,60.6,119.6,60.7L119.6,60.7z M119.4,52.2
	c0,0,0.1,0.1,0.1,0.1s0.1,0.1,0.1,0.1c0,0.1,0,0.1,0,0.2s0,0.1,0,0.2c-0.1,0-0.1,0-0.1,0s-0.1,0.1-0.1,0.1c-0.1,0-0.1,0-0.2-0.1
	s-0.1-0.1-0.2-0.1c0,0,0-0.1,0-0.1s0-0.1,0-0.2c0.1-0.2,0.2-0.3,0.3-0.3S119.2,52.2,119.4,52.2z M120.8,50c0,0.1,0.1,0.1,0.1,0.2
	s0.1,0.1,0.1,0.1c0,0.1,0,0.1,0,0.2s-0.1,0.1-0.1,0.2c-0.1,0-0.1,0-0.2,0s-0.1,0-0.1,0c-0.1,0-0.1,0-0.2-0.1s-0.1-0.1-0.2-0.2
	c0-0.2,0-0.3,0-0.3s0.1,0,0.1,0L120.8,50z M122.4,47.8c0,0,0.1,0.1,0.1,0.1s0,0.1,0.1,0.1c0,0.1,0,0.1,0,0.1s0,0.1,0.1,0.1
	c0,0-0.1,0.1-0.1,0.1s-0.1,0.1-0.1,0.1c-0.1,0-0.3,0-0.4,0s-0.2-0.1-0.3-0.2c0-0.1,0-0.1,0-0.1s0-0.1,0-0.2
	C121.9,47.9,122.1,47.8,122.4,47.8z M124.1,46.2c0,0.1-0.1,0.1-0.1,0.2s-0.1,0.1-0.2,0.2c-0.1,0-0.1-0.1-0.2-0.1s-0.1,0-0.2,0
	c-0.1-0.1-0.1-0.2-0.2-0.2s0-0.1,0-0.1c0-0.2,0.1-0.3,0.2-0.3c0.2,0,0.3,0,0.4,0s0.1,0,0.1,0C124,45.9,124,46,124.1,46.2z M125.4,44
	c0,0.1-0.1,0.1-0.1,0.2s-0.1,0.1-0.1,0.1c-0.1,0-0.1,0-0.1,0s-0.1,0-0.2,0c-0.1,0-0.2-0.1-0.2-0.1s0,0-0.1-0.1c0-0.1,0-0.1,0-0.2
	s0-0.1,0.1-0.1c0.1-0.1,0.2-0.2,0.3-0.2s0.2,0,0.2,0c0.1,0,0.1,0,0.1,0.1s0,0.1,0.1,0.1L125.4,44z"/>
<path fill="#FFFFFF" d="M136.4,50.4c0.1,0,0.1-0.1,0.2-0.1s0.1-0.1,0.2-0.1c0.1,0,0.2,0.1,0.2,0.1s0.1,0,0.1,0
	c0,0.1,0.1,0.1,0.1,0.2s0,0.1,0,0.2c-0.1,0.1-0.1,0.1-0.2,0.1s0,0-0.1,0c-0.2,0-0.3,0-0.4-0.1s-0.1-0.1-0.1-0.1
	C136.5,50.5,136.5,50.5,136.4,50.4C136.4,50.4,136.4,50.4,136.4,50.4z M137.1,53.3c0,0.1,0,0.2,0,0.2s0,0.2,0,0.3
	c-0.1,0.1-0.1,0.1-0.2,0.1s-0.2,0-0.3,0c-0.1-0.1-0.2-0.2-0.2-0.2s0,0,0-0.1c0-0.1,0-0.1,0-0.2s0.1-0.1,0.1-0.1c0.1,0,0.1,0,0.2,0
	s0.1,0,0.2,0L137.1,53.3z M138,56.2c0,0.1,0,0.2,0,0.4c-0.1,0.1-0.1,0.2-0.2,0.2s0,0-0.1,0c-0.2,0-0.4,0-0.4-0.1s-0.1-0.1-0.1-0.2
	c0-0.1,0-0.2,0.1-0.3s0.1-0.1,0.2-0.1s0.2,0,0.3,0S138,56.2,138,56.2z M138.2,47.5c0.1,0.1,0.1,0.2,0.1,0.4
	c-0.1,0.1-0.1,0.2-0.2,0.2c0,0-0.1,0-0.1,0s-0.1,0-0.1,0c-0.1-0.1-0.2-0.1-0.2-0.2s-0.1-0.1-0.1-0.2l0.1-0.2c0,0,0.1-0.1,0.1-0.1
	s0.1,0,0.1,0C138,47.4,138.1,47.4,138.2,47.5z M139.2,58.7c0,0.1,0.1,0.2,0.1,0.3s0,0.2,0,0.3c-0.1,0-0.1,0-0.2,0s-0.1,0-0.2,0
	c-0.1-0.1-0.1-0.1-0.2-0.2s-0.1-0.1-0.1-0.2c0-0.1,0.1-0.2,0.2-0.2S139,58.6,139.2,58.7z M140.3,45.3c0,0.1,0,0.2,0,0.3
	c0,0.1-0.1,0.1-0.1,0.1s-0.1,0.1-0.2,0.1c-0.1,0-0.1,0-0.1,0s-0.1,0-0.2,0c0,0,0-0.1,0-0.1s0-0.1,0-0.1c0,0,0-0.1,0-0.1s0-0.1,0-0.1
	c0.2-0.1,0.3-0.1,0.4-0.1s0.1,0,0.2,0.1L140.3,45.3z M141.8,60.2c0,0.1,0,0.1,0,0.2s0,0.1,0,0.2l-0.2,0.2c-0.2,0-0.3-0.1-0.4-0.1
	s-0.1-0.1-0.1-0.2c0,0,0-0.1,0-0.1s0-0.1,0-0.2c0.1,0,0.2-0.1,0.4-0.1S141.7,60.1,141.8,60.2z M142.5,43.9c0,0.1,0,0.1,0,0.2
	s0,0.1,0,0.2c-0.1,0.1-0.3,0.2-0.4,0.1c0,0-0.1,0-0.1-0.1s-0.1-0.1-0.2,0c0-0.1,0-0.2,0-0.2s0-0.1,0-0.2c0.2-0.1,0.3-0.1,0.4-0.1
	S142.4,43.9,142.5,43.9z M143.9,53.3c0,0.1,0,0.1,0.1,0.1s0.1,0,0.2,0c0,0,0,0.1,0,0.1s0,0.1,0,0.2c-0.2,0-0.3,0.1-0.3,0.3
	c-0.1,0-0.1,0-0.2,0s-0.1,0-0.2,0c-0.1-0.1-0.2-0.1-0.2-0.1s0,0-0.1,0c0-0.1,0-0.1,0-0.2s0-0.1,0-0.2c0.1-0.1,0.1-0.1,0.2-0.1
	s0.1,0,0.1,0c0.1,0,0.1,0,0.2,0S143.8,53.3,143.9,53.3z M144.5,60.8c-0.1,0.1-0.1,0.2,0,0.2s0.1,0,0,0.1c-0.1,0-0.2,0.1-0.2,0.1
	s-0.2,0.1-0.2,0c-0.1,0-0.1-0.1-0.1-0.1s-0.1-0.1-0.1-0.1c0-0.2,0-0.4,0.1-0.4c0.2,0,0.3,0,0.4,0S144.5,60.8,144.5,60.8z
	 M144.8,43.4c0,0.2,0,0.3,0,0.3s0,0.1-0.1,0.2c-0.3,0-0.5,0-0.7-0.2c0-0.1,0-0.1,0-0.2s0-0.1,0-0.2c0.1,0,0.2-0.1,0.2-0.2
	c0.1,0,0.2,0,0.3,0.1S144.7,43.4,144.8,43.4z M146.4,53.3c0.1,0.1,0.1,0.2,0.1,0.2s0,0.1,0,0.1c0,0.1-0.1,0.2-0.1,0.3H146
	c0,0-0.1-0.1-0.1-0.1s-0.1-0.1-0.1-0.1c0,0,0-0.1,0-0.2s0-0.1,0-0.2c0.1,0,0.1,0,0.2,0s0.1-0.1,0.1-0.1c0,0,0.1,0,0.1,0
	S146.3,53.3,146.4,53.3z M146.5,61.5c-0.1,0-0.1-0.1-0.2-0.2s0-0.2,0-0.3c0.2-0.1,0.3-0.1,0.4-0.1s0.1,0,0.2,0.1
	c0,0.1,0.1,0.2,0.1,0.2s0,0,0,0.1C146.8,61.5,146.7,61.6,146.5,61.5z M147.4,43.7c0,0.2,0,0.4-0.1,0.5c-0.2,0.1-0.3,0-0.4,0
	s-0.2-0.2-0.1-0.4c0-0.1,0.1-0.1,0.2-0.2s0.2-0.1,0.2-0.1s0.1,0,0.2,0.1S147.3,43.6,147.4,43.7z M148.6,53.3
	c0.1,0.2,0.1,0.3,0.2,0.2s0,0,0,0c0,0.2,0,0.3-0.1,0.4c-0.2,0-0.2,0-0.3,0s-0.1,0-0.1,0c-0.1-0.1-0.2-0.2-0.2-0.2s0-0.1,0-0.2
	s0-0.2,0.1-0.2C148.3,53.3,148.4,53.3,148.6,53.3z M148.9,60.8c0,0,0,0.1,0,0.1s0,0.1,0,0.1c0,0.1-0.1,0.1-0.2,0.2s-0.2,0-0.3,0
	c0,0-0.1,0-0.1-0.1s-0.1-0.1-0.2-0.1c0-0.1,0-0.3,0.1-0.4s0.2-0.1,0.3-0.1c0.1,0,0.1,0,0.2,0.1s0.1,0.1,0.2,0L148.9,60.8z
	 M149.1,45.2c-0.1,0-0.1,0.1-0.2,0.1s-0.1,0-0.3,0c-0.1-0.1-0.2-0.2-0.2-0.2s0-0.1-0.1-0.1c0.1-0.1,0.1-0.2,0.2-0.2s0.2-0.1,0.3-0.1
	c0.2,0.2,0.2,0.3,0.2,0.4S149.2,45.2,149.1,45.2z M149.8,58.5c0-0.1,0-0.2,0.1-0.2s0-0.1,0-0.1c0,0,0.1-0.1,0.1-0.1s0.1-0.1,0.2-0.1
	c0.1,0,0.2,0.1,0.2,0.1s0.1,0,0.1,0c0,0.2,0,0.3,0,0.3s0,0,0,0.1c0,0.1-0.1,0.1-0.1,0.1s-0.1,0-0.1,0c0,0-0.1,0-0.1,0s-0.1,0-0.1,0
	c0,0-0.1-0.1-0.1-0.1S149.9,58.5,149.8,58.5z M150.6,55.9c0,0.1,0,0.1,0,0.2s0,0.1,0,0.2c0,0.1-0.1,0.2-0.2,0.2s-0.2,0-0.3,0
	c0-0.1-0.1-0.1-0.2-0.2s-0.1-0.2,0-0.3c0.1,0,0.1-0.1,0.2-0.1s0.1-0.1,0.2-0.1c0.1,0,0.1,0,0.1,0.1S150.5,55.9,150.6,55.9z
	 M150.6,54.1c-0.1,0-0.2,0-0.2,0s-0.1,0-0.1,0.1c-0.1,0-0.1-0.1-0.2-0.1s-0.1-0.1-0.1-0.2c0.1-0.1,0.1-0.2,0.1-0.2s0-0.1,0-0.1
	c0.2-0.1,0.3-0.1,0.4,0s0.1,0.1,0.2,0.2C150.7,53.9,150.6,54,150.6,54.1C150.6,54,150.6,54.1,150.6,54.1z M150.2,60h0.3
	c0,0,0.1,0.1,0.1,0.1s0.1,0.1,0.1,0.1c0,0.2-0.1,0.4-0.2,0.5c-0.1,0-0.2,0-0.3,0s-0.1,0-0.2-0.1c-0.1-0.2-0.1-0.3-0.1-0.3
	s0-0.1,0-0.2L150.2,60z M150.1,46c0.2,0,0.3-0.1,0.4,0s0.1,0.1,0.2,0.1c0.1,0.1,0.1,0.2,0.1,0.2s0,0.1,0,0.2
	c-0.1,0.1-0.2,0.2-0.2,0.2s0,0,0,0c-0.2,0-0.3,0-0.4-0.1s-0.1-0.1-0.2-0.2c0-0.1,0.1-0.2,0.1-0.3L150.1,46z"/>
<path fill="#FFFFFF" d="M154.8,51.4c0,0.4-0.2,0.6-0.5,0.6c-0.1-0.1-0.2-0.2-0.2-0.2s-0.1,0-0.1-0.1c0,0,0-0.1,0-0.1s0-0.1,0-0.2
	c0.1-0.1,0.2-0.2,0.2-0.2s0.1,0,0.1,0c0.1,0,0.1,0.1,0.2,0.1S154.7,51.4,154.8,51.4z M154.3,54.4c0,0,0.1,0,0.1,0s0.1,0,0.1,0
	c0,0,0.1,0.1,0.1,0.1s0.1,0,0.1,0.1c0.1,0.1,0.1,0.2,0.1,0.3c-0.1,0.2-0.1,0.2-0.2,0.3s0,0-0.1,0.1c-0.2,0-0.3,0-0.4,0
	s-0.1-0.1-0.1-0.1c-0.1-0.2-0.1-0.4,0-0.4S154.3,54.4,154.3,54.4z M154.7,48.7c0-0.2,0.1-0.3,0.1-0.4c0.2-0.1,0.3-0.1,0.4-0.1
	s0.1,0,0.2,0c0.1,0.2,0.2,0.3,0.1,0.3s0,0.1,0,0.2c-0.2,0.1-0.3,0.1-0.4,0.1s-0.1,0-0.2,0c0-0.1,0-0.1-0.1-0.1
	S154.8,48.8,154.7,48.7z M155.3,57.4c0.1,0,0.1,0,0.2,0s0.1,0,0.1,0c0.1,0.1,0.2,0.1,0.2,0.1s0.1,0,0.1,0.1c0,0.1,0,0.2,0,0.2
	s0,0.1-0.1,0.2l-0.3,0.1c-0.1,0-0.2,0-0.2-0.1s-0.1,0-0.2,0c-0.1-0.1-0.1-0.2-0.1-0.3s0-0.1,0-0.2L155.3,57.4z M156.7,45.8
	c0.2,0,0.3,0.1,0.4,0.2s0.1,0.1,0.1,0.2c0,0.1,0,0.1-0.1,0.2s-0.1,0.1-0.2,0.1c-0.1,0.1-0.2,0.1-0.3,0.1s-0.1-0.1-0.2-0.2
	c0-0.1-0.1-0.1-0.1-0.2s0-0.1,0-0.2s0.1-0.2,0.2-0.2L156.7,45.8z M158,60.2c0,0-0.1,0-0.2,0.1s-0.1,0-0.2,0
	c-0.1-0.1-0.2-0.2-0.3-0.3c0-0.2,0.1-0.3,0.2-0.5c0.1,0,0.3,0,0.4,0.1s0.2,0.2,0.2,0.3c0,0.1,0,0.1-0.1,0.2S158,60.1,158,60.2z
	 M159.5,44.5c0,0.1,0,0.1,0,0.2s0,0.1,0,0.2c-0.1,0-0.1,0.1-0.2,0.2S159.2,45,159,45c-0.1-0.1-0.1-0.1-0.2-0.2s0,0,0,0
	c-0.1-0.2-0.1-0.3-0.1-0.3s0.1-0.1,0.1-0.2c0.1-0.1,0.2-0.1,0.3,0S159.4,44.4,159.5,44.5z M160.3,61.1c0.1,0,0.1,0,0.2-0.1
	s0.1-0.1,0.2-0.1c0.2,0,0.3,0.1,0.4,0.3s0,0.3-0.1,0.4c-0.1,0-0.2,0.1-0.2,0.1s-0.1,0-0.1,0c-0.1,0-0.2-0.1-0.3-0.2
	c-0.1-0.1-0.1-0.2-0.1-0.2S160.4,61.1,160.3,61.1z M162,43.4c0.1,0.1,0.2,0.2,0.3,0.2c0,0,0,0.1,0,0.1s0,0.1,0,0.1
	c0,0.1-0.1,0.2-0.2,0.2s-0.2,0.1-0.3,0.1c-0.1-0.1-0.2-0.2-0.3-0.2s-0.1,0-0.1-0.1c0-0.1,0.1-0.2,0.1-0.2s0,0,0-0.1
	c0.1-0.1,0.2-0.2,0.3-0.2S162,43.4,162,43.4z M163.6,61.6c-0.1-0.1-0.2-0.1-0.3-0.2c0,0,0-0.1,0-0.1s0-0.1,0-0.2
	c0.1-0.1,0.2-0.2,0.2-0.2s0.1,0,0.1,0s0.1,0,0.1,0s0.1,0.1,0.1,0.1c0,0,0.1,0.1,0.1,0.2s0,0.2,0,0.2
	C163.9,61.5,163.8,61.5,163.6,61.6z M165,44c0,0.2-0.1,0.2-0.1,0.2s-0.1,0-0.1,0c0,0.2,0,0.3-0.1,0.3s-0.2,0-0.3,0
	c0-0.1-0.1-0.2-0.1-0.2s0-0.2,0-0.2c0.1-0.1,0.2-0.1,0.2-0.2c0.2,0,0.3,0,0.4,0.1L165,44z M166.9,60.2c-0.2,0-0.3,0.1-0.4,0.1
	s-0.1,0-0.2,0s-0.1,0-0.1-0.1s-0.1-0.1-0.2-0.1c0.1-0.2,0.1-0.3,0.2-0.3c0.2-0.1,0.3-0.1,0.4-0.1c0.1,0.1,0.2,0.2,0.2,0.3
	S166.9,60.1,166.9,60.2z M166.8,45.8c-0.1,0-0.2-0.1-0.3-0.1s-0.2-0.1-0.2-0.2c0-0.1,0-0.1,0-0.2s0-0.1,0.1-0.2
	c0.2-0.1,0.4-0.2,0.4-0.1s0.2,0.1,0.2,0.1c0,0.2,0,0.2,0,0.3s0,0,0,0.1C166.9,45.7,166.9,45.8,166.8,45.8
	C166.9,45.8,166.9,45.8,166.8,45.8z M168.8,47c-0.1,0.2-0.1,0.3-0.2,0.3s-0.1,0.1-0.1,0.1c-0.1,0-0.1,0-0.2,0s-0.1,0-0.2,0
	c0-0.1-0.1-0.1-0.1-0.2s-0.1-0.1-0.1-0.2c0.1-0.2,0.1-0.3,0.1-0.2s0,0,0.1,0c0.2,0,0.3-0.1,0.3-0.1s0.1,0,0.1,0c0,0,0.1,0.1,0.1,0.1
	S168.8,47,168.8,47z M168.9,57.8c0,0.2-0.1,0.3-0.2,0.3c-0.1,0.1-0.2,0.1-0.3,0.1s-0.1,0-0.2-0.1c-0.1-0.1-0.1-0.2-0.1-0.3
	c0-0.2,0.1-0.3,0.2-0.3s0.2-0.1,0.3,0c0,0.1,0,0.1,0.1,0.2S168.9,57.7,168.9,57.8z M170,49.7c-0.1,0.1-0.2,0.2-0.4,0.1
	c-0.1,0-0.1,0-0.2-0.1s-0.1-0.1-0.1-0.1c0-0.1,0-0.2,0-0.2s0-0.1,0-0.2c0.1,0,0.1-0.1,0.2-0.1s0.2-0.1,0.3,0
	c0.1,0.2,0.2,0.3,0.2,0.4S169.9,49.6,170,49.7z M170.1,54.8c0,0.1,0.1,0.2,0.1,0.2s0,0.1,0,0.2c-0.1,0.1-0.3,0.2-0.6,0.1
	c0-0.1-0.1-0.1-0.1-0.2s0-0.1,0-0.3c0,0,0.1-0.1,0.1-0.1s0.1-0.1,0.1-0.1c0.1,0,0.2,0,0.2,0S170,54.7,170.1,54.8z M170.4,51.8
	c0,0,0,0.1,0,0.2s0,0.1,0,0.2c-0.1,0.2-0.3,0.3-0.6,0.2c-0.1-0.2-0.2-0.3-0.2-0.4s0-0.1,0.1-0.3c0,0,0.1,0,0.2,0s0.1,0,0.2,0
	C170.2,51.8,170.3,51.8,170.4,51.8z"/>
<path fill="#FFFFFF" d="M174,60.7c0.1-0.1,0.2-0.2,0.2-0.2s0,0,0,0c0.1,0,0.1-0.1,0.2-0.1s0.1,0,0.1,0c0.2,0.1,0.2,0.2,0.3,0.2
	s0,0.1,0,0.1c0,0.1,0,0.1-0.1,0.2s-0.1,0.1-0.1,0.2c-0.1,0-0.1,0-0.2,0s-0.1,0-0.2,0c0-0.1-0.1-0.1-0.1-0.2s-0.1,0-0.1,0
	c0,0,0-0.1,0-0.1S174,60.8,174,60.7z M175,48.9c0,0,0,0.1,0,0.1s0,0.1,0,0.1c-0.2,0.2-0.4,0.2-0.4,0.2c-0.1,0-0.2,0-0.2-0.1
	s-0.1-0.1-0.2-0.2c0,0,0.1-0.1,0.1-0.1s0-0.1,0.1-0.1c0.1,0,0.1,0,0.2-0.1s0.1,0,0.2,0C174.8,48.8,174.9,48.9,175,48.9
	C174.9,48.9,175,48.9,175,48.9z M174.3,53.4c0.1,0,0.1-0.1,0.2-0.1s0.1,0,0.2-0.1c0.1,0,0.1,0,0.1,0.1s0.1,0.1,0.1,0.1
	c0,0,0,0.1,0,0.1s0,0.1,0,0.2c-0.1,0.1-0.1,0.2-0.1,0.2s0,0,0,0.1c-0.1,0-0.2,0-0.2,0s-0.1,0-0.2-0.1c-0.1-0.1-0.1-0.2-0.1-0.3
	S174.2,53.5,174.3,53.4z M174.8,44.7c-0.2,0-0.3-0.1-0.4-0.2c-0.1,0-0.1-0.1-0.1-0.1s0-0.1,0-0.2c0.1-0.2,0.3-0.2,0.4-0.2
	s0.2,0,0.2,0c0.1,0,0.1,0.1,0.2,0.2s0.1,0.2,0,0.3C174.9,44.6,174.8,44.7,174.8,44.7z M175.1,58.3c0,0.1,0,0.2,0,0.2s0,0.1-0.1,0.1
	c-0.1,0.1-0.2,0.2-0.2,0.2s-0.2,0-0.2,0c0-0.1-0.1-0.1-0.1-0.2s-0.1-0.1-0.1-0.2c0,0,0.1-0.1,0.1-0.1s0.1-0.1,0.1-0.1
	c0.1,0,0.2,0,0.3,0S175.1,58.2,175.1,58.3z M175.1,46.5c0,0.1,0,0.1,0,0.2s0,0.1,0,0.2c-0.1,0-0.1,0.1-0.2,0.1s-0.1,0.1-0.2,0.1
	c-0.1,0-0.2-0.1-0.2-0.2s-0.1-0.2,0-0.4c0,0,0.1-0.1,0.3-0.1C174.9,46.3,175,46.3,175.1,46.5z M174.5,56c0.2-0.1,0.3-0.2,0.3-0.2
	s0.1,0,0.2,0c0.1,0.1,0.1,0.1,0.2,0.2s0,0.1,0,0.1c0,0.2-0.2,0.3-0.4,0.4c-0.1-0.1-0.1-0.1-0.2-0.1s-0.1-0.1-0.1-0.1
	c0,0,0-0.1,0-0.2S174.5,56.1,174.5,56z M175.2,51.1c0,0.2,0,0.3,0,0.3s-0.1,0.1-0.1,0.2c-0.2,0-0.3,0.1-0.3,0.1s-0.1,0-0.1,0
	c-0.2-0.2-0.2-0.3-0.1-0.5c0-0.1,0.1-0.2,0.2-0.2c0.1,0,0.1,0,0.1,0s0.1,0,0.1,0.1L175.2,51.1z M177.5,44.1c0,0,0,0.1,0,0.1
	s0,0.1,0,0.1c-0.1,0-0.1,0.1-0.1,0.1s-0.1,0.1-0.1,0.1c-0.1,0-0.2,0-0.2,0s-0.1,0-0.1,0c-0.1,0-0.1-0.1-0.2-0.2s-0.1-0.2,0-0.3
	c0,0,0.1-0.1,0.2-0.1s0.2-0.1,0.3-0.1c0.1,0,0.1,0,0.2,0S177.5,44,177.5,44.1z M177.9,60.8c0,0.1,0,0.2-0.1,0.2s-0.1,0.1-0.1,0.2
	c-0.1,0-0.1,0-0.2,0s-0.1,0-0.1,0c-0.2,0-0.3-0.1-0.3-0.2c0-0.1-0.1-0.2-0.1-0.2s0-0.1,0-0.1c0-0.1,0.1-0.1,0.1-0.2s0.1-0.1,0.1-0.1
	c0.2,0,0.4,0.1,0.4,0.2S177.8,60.7,177.9,60.8z M179.7,44.1c-0.1,0.1-0.1,0.2-0.1,0.3s-0.1,0.1-0.2,0.1c-0.2-0.1-0.2-0.1-0.3-0.2
	c0-0.1-0.1-0.2-0.1-0.2s0-0.1,0-0.1c0.3-0.1,0.5-0.2,0.5-0.1S179.7,44,179.7,44.1z M180,60.5c0,0,0.1,0.1,0.1,0.1s0.1,0.1,0.1,0.2
	c0,0.1,0,0.1-0.1,0.1s-0.1,0.1,0,0.2c-0.1,0-0.2,0.1-0.2,0.1s-0.1,0-0.1,0c-0.1,0-0.1,0-0.1-0.1s-0.1-0.1-0.1-0.2c0,0,0-0.1,0-0.1
	s0-0.1,0-0.2l0.2-0.2c0.1,0,0.1-0.1,0.2,0S179.9,60.5,180,60.5z M181.9,44c0,0.1,0,0.1,0,0.2s0,0.1,0,0.2c-0.1,0.1-0.2,0.2-0.2,0.2
	s0,0-0.1,0c-0.1,0-0.2-0.1-0.3-0.1s-0.1,0-0.1-0.1c0,0-0.1-0.1-0.1-0.2s0-0.1,0-0.2c0.1-0.1,0.2-0.2,0.2-0.2c0.1,0,0.2,0,0.3,0
	S181.8,44,181.9,44z M183.3,60.7c0,0.1-0.1,0.2-0.1,0.3c-0.1,0-0.2,0.1-0.3,0s-0.1,0-0.2,0l-0.1-0.5c0.1-0.1,0.2-0.1,0.3-0.2
	s0.2,0,0.3,0.1C183.2,60.5,183.2,60.6,183.3,60.7C183.2,60.7,183.2,60.7,183.3,60.7z M183.7,44.3c0.2,0.1,0.3,0.1,0.4,0.2
	s0.1,0.2,0,0.3c-0.1,0.1-0.2,0.1-0.3,0.2s-0.2,0-0.3-0.1c-0.1-0.1-0.1-0.3,0-0.4c0.1,0,0.1-0.1,0.1-0.1S183.7,44.3,183.7,44.3z
	 M185.8,59.8c0,0.1-0.1,0.3-0.1,0.4c-0.1,0-0.1,0-0.1,0s-0.1,0-0.1,0c0,0-0.1-0.1-0.1-0.1s-0.1,0-0.1-0.1c0-0.2-0.1-0.2-0.1-0.2
	s0,0,0,0c0.1-0.2,0.2-0.3,0.2-0.4s0.2,0,0.3,0c0,0,0.1,0.1,0.1,0.1S185.8,59.7,185.8,59.8z M186.3,45.4c0,0,0,0.1,0,0.3
	c-0.2,0.1-0.3,0.2-0.3,0.2s-0.1,0.1-0.1,0.1c-0.1,0-0.1,0-0.2,0s-0.1-0.1-0.1-0.1c0-0.2,0-0.3,0-0.5s0.2-0.2,0.3-0.2
	c0.1,0,0.1,0,0.2,0.1S186.2,45.4,186.3,45.4z M187.5,57.8c0,0.1,0.1,0.1,0.1,0.2s0.1,0.1,0.1,0.2c-0.1,0.2-0.2,0.3-0.2,0.4
	c-0.1,0.1-0.2,0.1-0.3,0c-0.1,0-0.1-0.1-0.1-0.1s-0.1-0.1-0.1-0.2c0-0.1,0-0.1,0-0.2s0-0.1,0-0.2c0.1,0,0.2,0,0.2,0
	S187.4,57.8,187.5,57.8z M187.9,47.3c-0.1,0.2-0.2,0.2-0.2,0.2s0.1,0,0,0.1c-0.1,0.1-0.2,0.1-0.4,0s-0.2-0.1-0.2-0.2
	c0.1-0.2,0.1-0.3,0.2-0.4s0.1-0.1,0.2-0.1c0.1,0,0.1,0.1,0.2,0.2S187.9,47.2,187.9,47.3z M188.5,49.6c-0.2,0-0.2,0-0.3,0
	s-0.1,0-0.1,0c-0.1-0.1-0.2-0.1-0.2-0.1s0,0,0,0c0-0.2-0.1-0.3,0-0.3s0.1-0.1,0.1-0.2c0.1,0,0.1-0.1,0.2-0.1s0.1,0,0.2,0
	c0,0.1,0.1,0.1,0.1,0.1s0.1,0.1,0.2,0.1c0,0.2,0,0.3,0,0.3S188.5,49.6,188.5,49.6z M187.9,56.1c0-0.1,0-0.2,0-0.3
	c0.2-0.1,0.3-0.2,0.3-0.2s0.1,0,0.1,0c0,0,0.1,0.1,0.1,0.1s0.1,0,0.2,0.1c0.1,0.2,0,0.4-0.1,0.5s-0.3,0.1-0.4,0.1
	c0-0.1,0-0.1-0.1-0.1S187.9,56.1,187.9,56.1z M189,54c0,0,0,0.1-0.1,0.2s-0.1,0.1-0.1,0.1c-0.2,0-0.3,0.1-0.3,0.1s0,0,0,0
	c-0.1-0.1-0.2-0.2-0.2-0.2s-0.1,0-0.1-0.1c0,0,0-0.1,0-0.2s0-0.1,0-0.1l0.4-0.2c0,0,0.1,0.1,0.1,0.1s0.1,0.1,0.1,0.1L189,54z
	 M188.5,51.3c0.1,0,0.2,0,0.3,0s0.1,0.1,0.2,0.1c0,0.1,0,0.2,0,0.2s-0.1,0.1,0,0.3c-0.2,0.2-0.4,0.2-0.5,0c0-0.2,0-0.3,0-0.4
	S188.5,51.3,188.5,51.3z"/>
<path fill="#FFFFFF" d="M193.6,48.9c-0.1,0.2-0.2,0.3-0.2,0.3s0,0.1-0.1,0.1c-0.1,0.1-0.3,0.1-0.4,0s-0.2-0.1-0.3-0.3l0-0.3l0.2-0.2
	c0.1,0,0.2,0,0.3,0s0.1,0,0.2,0C193.3,48.8,193.4,48.9,193.6,48.9z M193.2,59.2c0.1,0.1,0.2,0.1,0.2,0.1s0.1,0.1,0.1,0.1
	c0,0,0,0.1,0,0.2s0,0.1,0,0.2c-0.1,0.1-0.2,0.2-0.2,0.2c-0.2,0-0.3,0-0.4-0.1s-0.1,0-0.2,0c-0.1-0.2-0.1-0.4,0-0.5
	C192.8,59.2,193,59.2,193.2,59.2z M193.4,61.4l-0.4,0.1c-0.1,0-0.2-0.1-0.2-0.1s0,0-0.1,0c0-0.1,0-0.1,0-0.2s0-0.1,0-0.1
	c0-0.2,0.1-0.2,0.2-0.2s0.2,0,0.2-0.1c0.1,0,0.1,0.1,0.2,0.1s0.1,0.1,0.2,0.1C193.5,61.1,193.4,61.2,193.4,61.4z M193.4,46.2
	c0,0.1,0,0.2,0.1,0.3c0,0-0.1,0.1-0.1,0.2s-0.1,0.1-0.1,0.2c-0.1,0-0.2,0-0.3,0s-0.1,0-0.1,0c-0.1-0.1-0.1-0.2-0.1-0.2
	s-0.1-0.1-0.1-0.1c0-0.2,0.1-0.3,0.1-0.3s0-0.1,0-0.1c0,0,0.1,0,0.1,0s0.1,0,0.2,0c0.1,0,0.2,0.1,0.2,0.1s0.1,0,0.1,0L193.4,46.2z
	 M193.5,54.4c-0.1,0-0.1,0.1-0.2,0.1h-0.3c-0.1,0-0.1-0.1-0.1-0.1s-0.1-0.1-0.1-0.2c0,0,0-0.1,0-0.2s0-0.1,0-0.2
	c0.2-0.1,0.3-0.2,0.4-0.1s0.1,0,0.2,0c0.1,0.1,0.1,0.2,0.1,0.2S193.5,54.2,193.5,54.4z M193.5,56.7c0,0.2-0.1,0.3-0.3,0.4
	c-0.2,0-0.4,0-0.5-0.2c0-0.2,0-0.3,0-0.3s0-0.1,0-0.1c0.2-0.1,0.3-0.2,0.3-0.2s0.1,0,0.1,0c0.1,0,0.2,0.1,0.2,0.2
	S193.5,56.6,193.5,56.7z M192.8,51.2c0.2,0,0.3,0,0.3,0c0.1,0,0.1,0,0.2,0.1s0.1,0.1,0.2,0.1c0,0.2,0,0.3,0,0.3s0,0,0,0.1
	c-0.1,0.1-0.1,0.2-0.2,0.3s-0.1,0-0.1,0c-0.1,0-0.1,0-0.2-0.1s-0.1-0.1-0.2-0.1c0-0.2-0.1-0.3,0-0.4S192.8,51.3,192.8,51.2z
	 M192.8,43.7c0,0,0.1,0,0.2-0.1s0.1,0,0.2,0c0.2,0.2,0.3,0.3,0.3,0.4s0,0.2,0,0.3c-0.1,0.1-0.2,0.1-0.3,0.1s-0.1,0-0.2,0
	c0,0-0.1-0.1-0.1-0.1s-0.1-0.1-0.1-0.1c0-0.1,0-0.2,0-0.3S192.8,43.7,192.8,43.7z"/>
<path fill="#FFFFFF" d="M122.4,850.7c0,0.1,0.1,0.2,0.2,0.2c0,0.2,0,0.2,0.1,0.2s0,0,0.1,0c-0.1,0-0.1,0.1-0.2,0.1s0,0-0.1,0
	c-0.1,0-0.1,0.1-0.2,0.1s-0.1,0-0.2,0c-0.1-0.1-0.2-0.1-0.2-0.2s0-0.1,0-0.1c0.1-0.1,0.1-0.2,0.2-0.2s0.1-0.1,0.1-0.1
	c0,0,0.1,0,0.1,0S122.4,850.7,122.4,850.7z M121.9,854.9c0.1-0.1,0.2-0.1,0.2-0.1s0,0,0.1,0c0,0,0.1,0,0.1,0s0.1,0.1,0.2,0.1
	c0.1,0.1,0.1,0.2,0.1,0.2s0,0.1,0,0.1c0,0-0.1,0.1-0.1,0.1s-0.1,0.1-0.1,0.1c-0.2,0-0.3,0-0.4,0s-0.2-0.1-0.2-0.2c0,0,0-0.1,0-0.1
	S121.9,855,121.9,854.9z M122.5,847.1c-0.1,0-0.2,0-0.3,0c-0.1,0-0.1-0.1-0.2-0.1s0,0-0.1-0.1c-0.1-0.1-0.1-0.2,0-0.3
	c0-0.1,0.1-0.1,0.1-0.1s0.1,0,0.1-0.1c0.1,0,0.2,0,0.2,0s0.1,0,0.2,0.1c0,0.1,0,0.1,0.1,0.1s0.1,0.1,0.1,0.1c0,0.1,0,0.1-0.1,0.2
	S122.5,847,122.5,847.1z M122.2,852.8c0.1,0.1,0.2,0.1,0.3,0.1c0.1,0.1,0.1,0.2,0.1,0.3s0,0.1,0,0.1c-0.1,0.1-0.2,0.1-0.3,0.1
	s-0.2,0-0.3,0c0-0.1,0-0.1-0.1-0.1s0-0.1,0-0.2c0.1-0.2,0.2-0.3,0.2-0.3S122.2,852.8,122.2,852.8z M122.1,848.6c0,0,0.1,0,0.1,0
	s0.1,0,0.1,0c0.1,0.1,0.2,0.1,0.2,0.1s0.1,0,0.1,0c0,0.1,0,0.2,0,0.3s-0.1,0.1-0.1,0.2c-0.1,0-0.2,0-0.3,0s-0.2,0-0.3-0.1
	c0-0.1,0-0.2,0-0.3S122.1,848.6,122.1,848.6z M122.7,837.9c0,0.1,0,0.1,0,0.2s0,0.1,0,0.2c-0.2,0-0.3,0.1-0.3,0.1s-0.1,0-0.1,0
	c-0.2-0.1-0.3-0.2-0.3-0.3c0-0.1,0-0.1,0.1-0.2s0.1-0.1,0.1-0.2c0.1,0,0.3,0,0.4,0S122.7,837.9,122.7,837.9z M122.8,840
	c0,0.2-0.1,0.3-0.1,0.3c-0.1,0.1-0.2,0.1-0.2,0.1c-0.1,0-0.2,0-0.2,0s-0.1-0.1-0.2-0.1c-0.1-0.2-0.1-0.3-0.1-0.3s0-0.1,0-0.1
	c0.1,0,0.1,0,0.2-0.1s0.1-0.1,0.2-0.1c0.2,0.1,0.3,0.1,0.3,0.2S122.8,839.9,122.8,840z M122.1,844.8c0-0.1,0-0.2-0.1-0.3
	s0-0.2,0-0.2c0.1,0,0.1-0.1,0.2-0.1s0.1,0,0.2,0c0.1,0,0.1,0,0.2,0.1s0.1,0.1,0.2,0.1c0,0.1,0,0.2,0,0.3s-0.1,0.1-0.1,0.2
	c-0.1,0-0.2,0-0.2,0S122.2,844.9,122.1,844.8z M122.6,842.5c-0.1,0-0.2,0.1-0.4,0c-0.1-0.1-0.1-0.1-0.2-0.2s-0.1-0.1,0-0.3
	c0.2-0.1,0.4-0.2,0.4-0.1s0.1,0.1,0.2,0.1c0,0.1,0,0.2,0,0.3S122.6,842.5,122.6,842.5z"/>
<path fill="#FFFFFF" d="M126,838c0.1,0.2,0.1,0.3,0.1,0.4s-0.1,0.1-0.1,0.2c-0.1,0-0.2,0.1-0.3,0.1s-0.2,0-0.2-0.1
	c-0.1-0.2-0.2-0.2-0.2-0.3c0-0.1,0-0.2,0-0.3c0.2-0.1,0.3-0.2,0.4-0.1S125.9,838,126,838z M128.3,837.9c0.1,0.1,0.2,0.2,0.2,0.2
	s0,0,0.1,0.1c0,0,0,0.1,0,0.1s0,0.1,0,0.2c-0.1,0.1-0.2,0.2-0.3,0.2c-0.2,0-0.2,0-0.3,0s0,0-0.1,0s-0.1,0-0.1-0.1s-0.1-0.1-0.1-0.1
	c0-0.1,0-0.1,0-0.1s0-0.1,0-0.1c0.1-0.1,0.2-0.2,0.3-0.2S128.1,837.9,128.3,837.9L128.3,837.9z M130.9,838.4c0,0.1,0,0.1-0.1,0.1
	s-0.1,0.1-0.1,0.1c-0.1,0-0.2,0-0.3,0s-0.2-0.1-0.3-0.1c0-0.2-0.1-0.3-0.1-0.4c0,0,0-0.1,0.1-0.1s0.1-0.1,0.1-0.1
	c0.2-0.1,0.3-0.1,0.4-0.1s0.1,0.1,0.2,0.1c0,0,0,0.1,0,0.1s0.1,0.1,0.1,0.1S131,838.3,130.9,838.4
	C131,838.4,130.9,838.4,130.9,838.4z M133.2,852.3c-0.1,0.1-0.1,0.2-0.1,0.2s0,0.1-0.1,0.1c-0.1,0-0.1,0-0.2,0s-0.1,0-0.2,0
	c0-0.1-0.1-0.1-0.1-0.2s-0.1-0.1-0.1-0.2c0.1-0.1,0.1-0.2,0.2-0.3s0.1-0.1,0.1-0.1c0.1,0,0.2,0,0.3,0s0.2,0.1,0.2,0.2L133.2,852.3z
	 M133.3,838.4c0,0-0.1,0.1-0.1,0.1s-0.1,0.1,0,0.1c-0.1,0-0.1,0-0.2,0s-0.1,0-0.2,0c-0.1,0-0.1-0.1-0.2-0.1s-0.1-0.1-0.2-0.1
	c0-0.1,0-0.1,0-0.2s0-0.1,0-0.2c0.1,0,0.1-0.1,0.2-0.1s0.1-0.1,0.2-0.1c0.2,0.1,0.3,0.1,0.3,0.1c0.1,0.2,0.1,0.2,0.1,0.3
	S133.3,838.3,133.3,838.4z M133,840.7c0,0.1,0.1,0.1,0.1,0.2s0.1,0.1,0.1,0.1c0,0.1-0.1,0.2-0.1,0.2s-0.1,0.1-0.2,0.2
	c-0.1,0-0.2-0.1-0.2,0s-0.1,0-0.1,0c0,0-0.1-0.1-0.1-0.2s-0.1-0.1-0.1-0.2c0.1-0.1,0.1-0.1,0.1-0.3
	C132.6,840.7,132.8,840.7,133,840.7z M133.2,846.4c0,0.1,0,0.1,0,0.2s0,0.1,0.1,0.1c-0.1,0.2-0.1,0.3-0.1,0.3s0,0-0.1,0
	c-0.1,0.1-0.2,0.1-0.3,0s-0.1-0.1-0.2-0.1c0,0-0.1-0.1-0.1-0.1s-0.1-0.1-0.1-0.1c0-0.1,0-0.1,0.1-0.2s0.1-0.1,0.1-0.2
	c0.1,0,0.1,0,0.2,0s0.1,0,0.2,0c0,0,0.1,0.1,0.1,0.1S133.1,846.4,133.2,846.4z M133.3,849.4c0,0.1,0,0.1-0.1,0.1s-0.1,0.1,0,0.2
	c-0.2,0.1-0.3,0.2-0.5,0.1c-0.1-0.2-0.1-0.2-0.2-0.2s-0.1,0-0.1-0.1c0-0.1,0-0.2,0.1-0.2c0.1-0.1,0.2-0.1,0.3-0.2s0.2,0,0.2,0.1
	C133.1,849.3,133.2,849.4,133.3,849.4z M133.2,855.2c-0.1,0.1-0.2,0.2-0.3,0.2s-0.1,0-0.1,0s-0.1,0-0.1,0s-0.1,0-0.2,0
	c0-0.1-0.1-0.1-0.1-0.2s-0.1-0.1-0.1-0.2c0-0.1,0.1-0.1,0.1-0.2s0.1-0.1,0.1-0.1c0.1,0,0.1,0,0.2,0s0.1,0,0.2,0
	c0,0.1,0.1,0.2,0.1,0.2S133.3,855,133.2,855.2z M133.3,843.9c-0.1,0.1-0.1,0.2-0.1,0.2s0,0,0,0.1c0,0-0.1,0.1-0.1,0.1
	s-0.1,0.1-0.1,0.1c-0.1-0.1-0.2-0.1-0.2-0.1s-0.1,0-0.1,0c0,0-0.1-0.1-0.1-0.1s-0.1-0.1-0.1-0.1c0-0.3,0.1-0.4,0.1-0.5
	s0.1-0.1,0.2-0.1s0.2,0,0.2,0.1c0.1,0.1,0.2,0.2,0.2,0.2S133.3,843.8,133.3,843.9z M135.7,838.3c0,0.1-0.1,0.2-0.2,0.3
	s-0.3,0.1-0.4,0c0,0-0.1-0.1-0.1-0.1s-0.1-0.1-0.1-0.1c0.1,0,0.1-0.1,0.1-0.1s0-0.1,0-0.2c0.1-0.1,0.1-0.1,0.2-0.2s0.1-0.1,0.1-0.1
	c0.1,0,0.1,0,0.2,0s0.1,0.1,0.2,0.1C135.6,838.1,135.6,838.2,135.7,838.3C135.6,838.2,135.6,838.3,135.7,838.3z M137.9,838.2
	c0,0.1,0,0.2,0,0.2s-0.1,0.1-0.1,0.2c-0.1,0-0.2,0-0.2,0s-0.1,0-0.2,0c0,0-0.1-0.1-0.1-0.1s-0.1-0.1-0.1-0.1c0,0,0-0.1,0-0.2
	s0-0.1,0-0.1c0.1-0.1,0.1-0.1,0.1-0.1s0,0,0.1-0.1c0.1,0,0.2,0,0.2,0s0.1,0,0.2,0C137.8,838.1,137.8,838.1,137.9,838.2z M140,838
	c0.2,0.1,0.2,0.3,0.1,0.4c-0.1,0.1-0.2,0.2-0.2,0.2c-0.1,0-0.1,0-0.2,0s-0.1,0-0.2,0c-0.1-0.2-0.2-0.3-0.1-0.4
	c0.1-0.2,0.3-0.2,0.3-0.2S139.9,838,140,838z"/>
<path fill="#FFFFFF" d="M141.6,843.8c0-0.2,0.1-0.3,0.1-0.4c0.2-0.1,0.3-0.2,0.4-0.2s0.2,0,0.2,0.1c0,0.1,0.1,0.1,0.1,0.2
	s0,0.1,0,0.1c0,0.2-0.1,0.3-0.1,0.3c-0.1,0.1-0.2,0.1-0.3,0.1c-0.2,0-0.3,0-0.3-0.1L141.6,843.8z M143.1,841.7c0,0.1,0,0.1,0,0.2
	s-0.1,0.1,0,0.2c-0.1,0-0.2,0.1-0.2,0.1s-0.2,0.1-0.3,0c-0.2-0.2-0.3-0.3-0.3-0.3c0,0,0-0.1,0-0.1s0-0.1,0-0.1
	c0.2-0.1,0.3-0.2,0.3-0.2s0.1,0,0.2,0C142.9,841.6,143,841.6,143.1,841.7z M143.6,840.4c0,0-0.1,0-0.1,0s-0.1,0-0.1,0
	c-0.1,0-0.1,0-0.2-0.1s-0.1-0.1-0.2-0.2c0-0.2,0-0.2,0-0.3s0,0,0-0.1c0-0.1,0-0.1,0.1-0.1s0.1-0.1,0.1-0.1c0.2,0,0.3,0,0.4,0.1
	s0.2,0.2,0.1,0.4C143.6,840.3,143.6,840.3,143.6,840.4C143.6,840.4,143.6,840.4,143.6,840.4z M143.8,838.7c-0.2-0.2-0.3-0.2-0.3-0.3
	s0-0.1,0-0.2c0.1-0.3,0.2-0.4,0.5-0.3c0.2,0.1,0.3,0.3,0.2,0.4c-0.1,0.2-0.2,0.2-0.2,0.2s-0.1,0-0.1,0L143.8,838.7z"/>
<path fill="#FFFFFF" d="M147,853.5c0,0.1,0,0.1,0,0.2s0,0.1,0,0.2l-0.3,0.2c-0.1,0-0.2,0.1-0.2,0s-0.1,0-0.2,0
	c-0.1-0.1-0.2-0.2-0.2-0.2s0-0.1,0-0.1c0.1-0.1,0.2-0.2,0.2-0.2c0,0,0.1-0.1,0.1-0.1s0.1,0,0.2-0.1c0.1,0,0.1,0,0.2,0.1
	S146.9,853.4,147,853.5z M147,842.3c0,0.1,0,0.1,0,0.2s0,0.1,0,0.1c0,0.1-0.1,0.1-0.2,0.2c-0.1,0-0.1,0-0.2,0s-0.1-0.1-0.2-0.1
	c-0.1-0.2-0.1-0.3-0.1-0.4c0.1-0.1,0.1-0.2,0.2-0.2s0.1,0,0.1-0.1c0.1,0,0.2,0,0.3,0.1S147,842.2,147,842.3z M147.2,839.6
	c0,0,0.1,0,0.2,0s0.1,0,0.1,0c0,0.1,0,0.1,0,0.2s0,0.2,0,0.2c-0.2,0.1-0.3,0.1-0.4,0.1s-0.1,0-0.2,0c-0.1-0.1-0.2-0.1-0.2-0.2
	s-0.1-0.2,0-0.3c0.1-0.1,0.2-0.2,0.3-0.2L147.2,839.6z M147.6,844.5c0.1,0,0.1,0,0.2,0s0.1,0,0.2,0c0,0,0.1,0.1,0.1,0.1
	s0.1,0.1,0.2,0.1c0,0.2,0,0.3,0,0.3s0,0.1-0.1,0.1c-0.1,0.1-0.2,0.1-0.2,0.1s0,0-0.1,0c-0.2-0.1-0.2-0.2-0.3-0.2s0,0,0,0
	c-0.1-0.2-0.1-0.3,0-0.4S147.6,844.6,147.6,844.5z M148.7,854.5c0.1,0,0.2-0.1,0.2,0s0.2,0.1,0.2,0c0,0.1,0.1,0.1,0.1,0.2
	s0.1,0.1,0.1,0.1c-0.1,0.3-0.3,0.4-0.6,0.4c-0.1,0-0.1-0.1-0.1-0.2s-0.1-0.1-0.1-0.2c0-0.1,0-0.1,0-0.2S148.6,854.6,148.7,854.5
	L148.7,854.5z M148.9,838.8c0-0.1,0-0.1,0-0.2s-0.1-0.1-0.1-0.2c0.2-0.3,0.4-0.4,0.6-0.4c0.1,0.1,0.2,0.2,0.2,0.3s0,0.1,0,0.2
	c-0.2,0.1-0.2,0.2-0.3,0.2s-0.1,0-0.1,0c0,0-0.1,0-0.1,0S148.9,838.8,148.9,838.8z M150.8,846c0,0.1-0.1,0.2-0.1,0.3
	c-0.1,0-0.2,0-0.3,0s-0.2,0-0.3-0.1c0-0.1-0.1-0.2-0.1-0.3s0-0.2,0.1-0.3c0,0,0.1,0,0.1,0s0.1,0,0.2,0c0.1,0.1,0.2,0.1,0.2,0.1
	s0.1,0,0.1,0L150.8,846z M151.9,838.1c-0.1,0-0.1,0.1-0.2,0.1s-0.1,0.1-0.2,0.1c-0.1,0-0.1,0-0.2,0s-0.1,0-0.2,0l-0.1-0.4
	c0.2-0.2,0.5-0.2,0.6-0.2c0.1,0.2,0.2,0.3,0.2,0.3S151.8,838.1,151.9,838.1z M151.3,855.6c0-0.1-0.1-0.2-0.1-0.2s0-0.1,0-0.3
	c0.2-0.1,0.3-0.2,0.3-0.1s0.1,0,0.2,0c0.1,0.1,0.2,0.2,0.2,0.2s0.1,0,0.1,0.1c0,0.1,0,0.2,0,0.3s-0.1,0.1-0.2,0.2
	c-0.1,0-0.1,0-0.2,0S151.4,855.6,151.3,855.6z M152.6,846.9c0-0.1,0-0.1,0-0.2s-0.1-0.1-0.1-0.2c0,0,0-0.1,0-0.1s0-0.1,0-0.2
	c0.1,0,0.1-0.1,0.3-0.1s0.2,0,0.3,0c0,0,0,0.1,0.1,0.1s0.1,0.1,0.1,0.2c0,0,0,0.1,0,0.1s0,0.1,0,0.2c-0.1,0-0.1,0.1-0.2,0.1
	s-0.1,0.1-0.3,0L152.6,846.9z M153.3,838.7c0-0.1,0-0.2,0-0.2s0-0.1,0-0.1c0.1-0.1,0.2-0.2,0.3-0.2s0.1,0,0.1,0c0.1,0,0.1,0,0.2,0.1
	s0.1,0.1,0.2,0.1c0,0.2,0,0.4-0.2,0.5c-0.1,0-0.2,0-0.3,0S153.4,838.7,153.3,838.7z M154.5,855.1c-0.1,0-0.1,0-0.2-0.1
	s-0.1-0.1-0.1-0.1c-0.1-0.1-0.1-0.2-0.2-0.2s0,0,0,0c0.1-0.2,0.1-0.2,0.1-0.3s0-0.1,0.1-0.1c0.1,0,0.1,0,0.2-0.1s0.2,0,0.3,0
	c0.1,0.1,0.1,0.1,0.2,0.2s0.1,0.1,0.1,0.2c0,0.1,0,0.2-0.1,0.3S154.6,855,154.5,855.1z M155.4,839.2c0.1,0.1,0.3,0.2,0.4,0.2
	c0,0.1,0.1,0.1,0,0.2s-0.1,0.1-0.1,0.2c-0.1,0-0.2,0.1-0.3,0.1s-0.2,0-0.3-0.1c0,0-0.1-0.1-0.1-0.1s0-0.1-0.1-0.2
	c0-0.1,0-0.1,0.1-0.2s0.1-0.1,0.1-0.2L155.4,839.2z M155.5,847.3c0,0,0.1,0.1,0.1,0.1s0.1,0,0.1,0.1c0,0.1,0.1,0.2,0.1,0.2s0,0,0,0
	c0,0.1,0,0.2-0.1,0.3s-0.2,0.1-0.2,0.2c-0.1,0-0.2-0.1-0.3-0.1s-0.2-0.1-0.2-0.2c0-0.2,0-0.3,0-0.4c0,0,0.1-0.1,0.1-0.1
	s0.1-0.1,0.1-0.1L155.5,847.3z M156.4,852.4c0.1,0.1,0.2,0.1,0.2,0.1s0,0,0.1,0c0.1,0.2,0.2,0.3,0.2,0.3s0,0,0,0.1
	c0,0.1,0,0.2,0,0.2s0,0.1,0,0.1c-0.1,0-0.1,0-0.2,0s-0.1,0-0.2,0c0,0-0.1,0-0.1-0.1s-0.1-0.1-0.2,0c0-0.2-0.1-0.3-0.2-0.3
	c0-0.1,0.1-0.1,0.1-0.2s0.1-0.1,0.1-0.2C156.2,852.5,156.3,852.5,156.4,852.4z M157.1,841c0,0.1,0,0.1,0,0.1s-0.1,0.1,0,0.1
	c0,0-0.1,0-0.1,0s-0.1,0-0.2,0c0,0-0.1,0.1-0.1,0s-0.1,0-0.1,0c-0.1-0.1-0.2-0.2-0.2-0.2c0-0.1,0-0.3,0-0.4c0,0,0.1,0,0.1-0.1
	s0.1-0.1,0.1-0.1C156.8,840.6,157,840.7,157.1,841z M156.6,850.4c0-0.2,0-0.3,0-0.3s0,0,0-0.1c0-0.1,0.1-0.2,0.1-0.2
	s0.1-0.1,0.1-0.1c0.1,0,0.1,0,0.2,0s0.1,0,0.2,0c0.1,0.1,0.2,0.1,0.2,0.2s0.1,0.2,0.1,0.3c0,0-0.1,0.1-0.1,0.1s0,0.1-0.1,0.1
	c-0.2,0-0.3,0-0.3,0L156.6,850.4z"/>
<path fill="#FFFFFF" d="M170.7,840.4c-0.1,0-0.2,0-0.3,0.1c-0.1,0-0.2-0.1-0.2-0.1s-0.1-0.1-0.2-0.2c0.2-0.2,0.3-0.3,0.4-0.4
	c0.1,0,0.2,0,0.2,0.1s0.1,0.1,0.2,0.2c0,0,0,0.1,0,0.2S170.7,840.4,170.7,840.4z M170.5,855.4c-0.1,0-0.2-0.1-0.3,0
	c-0.1-0.1-0.2-0.2-0.2-0.3c0-0.1,0-0.1,0-0.2s0-0.1,0-0.1c0.2-0.1,0.3-0.2,0.3-0.2s0.1,0,0.1,0c0.1,0,0.1,0.1,0.2,0.2
	s0.1,0.1,0.1,0.2C170.7,855.1,170.7,855.3,170.5,855.4z M170.9,842.1c-0.1,0.1-0.1,0.2-0.1,0.2s0,0,0,0.1c-0.1,0-0.2,0-0.3,0.1
	s-0.2,0-0.3,0c0-0.1-0.1-0.1-0.1-0.2s0-0.1,0-0.2c0.1-0.1,0.2-0.2,0.3-0.2s0.1,0,0.1,0c0.1,0,0.1,0,0.2,0.1s0.1,0.1,0.2,0.1
	C170.8,841.9,170.9,842,170.9,842.1z M170.8,848.9c-0.1,0-0.1,0.1-0.2,0.1s-0.2,0-0.3,0c0,0,0-0.1-0.1-0.2s-0.1-0.1-0.1-0.2
	c0.1-0.1,0.1-0.2,0.1-0.2s0,0,0-0.1c0.2,0,0.3-0.1,0.4-0.1c0.1,0,0.1,0.1,0.2,0.1s0.1,0.1,0.2,0.1c0,0.2,0,0.3-0.1,0.3
	S170.8,848.8,170.8,848.9z M170.9,846.4c-0.1,0.2-0.1,0.3-0.2,0.3s-0.1,0.1-0.1,0.1c-0.1,0-0.2,0-0.3,0c0-0.1,0-0.1-0.1-0.1
	s-0.1-0.1-0.1-0.1c0-0.1,0-0.2,0-0.2s0.1-0.1,0.1-0.2c0.1,0,0.1,0,0.2,0s0.1,0,0.2,0c0,0,0.1,0.1,0.2,0.1S170.9,846.3,170.9,846.4z
	 M170.8,850.4c0,0,0.1,0.1,0.1,0.1s0,0.1,0.1,0.1c0,0.1,0,0.1-0.1,0.1s0,0.1,0,0.2c-0.1,0-0.1,0.1-0.2,0.1c-0.1,0-0.1,0-0.2,0
	s-0.1,0-0.2,0c0-0.1-0.1-0.1-0.1-0.2s-0.1-0.1,0-0.3c0.1-0.2,0.2-0.3,0.3-0.2S170.7,850.4,170.8,850.4z M171,838.1
	c0,0.1-0.1,0.2-0.1,0.2s0,0.1,0,0.1c-0.2,0.1-0.3,0.1-0.3,0.1s-0.1,0-0.1,0c-0.1,0-0.1-0.1-0.2-0.1s-0.1-0.1-0.1-0.2
	c0-0.1,0-0.2,0.1-0.3c0.1-0.1,0.2-0.1,0.4,0c0,0.1,0.1,0.1,0.2,0.1S170.9,838.1,171,838.1z M171,844.2c-0.1,0.2-0.1,0.3-0.2,0.3
	s-0.1,0.1,0,0.2c-0.1,0-0.1,0-0.2,0s-0.1,0-0.2,0c0,0-0.1-0.1-0.1-0.1s-0.1-0.1-0.1-0.1c0-0.1,0-0.1,0-0.2s0-0.1,0-0.1
	c0-0.1,0.1-0.2,0.3-0.2s0.3,0,0.3,0.1L171,844.2z M170.8,852.4c0,0.1,0.1,0.2,0.1,0.2s0.1,0,0.1,0.1c0,0.1-0.1,0.2-0.1,0.3
	c-0.4,0.1-0.6,0-0.6-0.3c0.1-0.2,0.2-0.3,0.2-0.3s0.1-0.1,0.1-0.1c0,0,0.1,0,0.2,0S170.7,852.4,170.8,852.4z M172.6,846.3
	c0,0.1,0,0.1,0,0.2s0,0.1,0,0.1c-0.1,0.1-0.1,0.1-0.3,0.2s-0.2,0.1-0.4,0c0-0.1-0.1-0.1-0.1-0.2s0-0.1,0-0.2
	c0.1-0.2,0.2-0.3,0.2-0.3c0.2,0,0.3,0,0.4,0.1S172.6,846.3,172.6,846.3z M173,838.6c-0.1,0-0.1,0-0.2,0s-0.1,0-0.2-0.1
	c0,0-0.1-0.1-0.2-0.1s-0.1,0-0.1-0.1c0-0.1,0-0.1,0-0.2s0.1-0.1,0-0.2c0.1,0,0.1,0,0.2-0.1s0.1-0.1,0.2,0c0.1,0,0.2,0,0.2,0.1
	s0.1,0.1,0.1,0.2c0,0.1,0,0.2-0.1,0.2S173,838.6,173,838.6z M174.6,846.1c0,0,0.1,0.1,0.2,0.1s0.1,0.1,0.2,0.2
	c-0.1,0.2-0.1,0.3-0.2,0.4s-0.1,0.1-0.2,0.1c-0.2-0.1-0.3-0.1-0.3-0.1s0,0,0,0c-0.1-0.2-0.1-0.3-0.1-0.3s0-0.1,0.1-0.1
	c0.1-0.1,0.2-0.1,0.2-0.1s0,0,0.1,0L174.6,846.1z M175.4,838.3c0,0.1,0,0.1-0.1,0.2s0,0.1,0,0.2c-0.1,0.1-0.2,0.1-0.2,0.1
	s-0.1,0-0.1,0c-0.2-0.1-0.3-0.1-0.4-0.2c0-0.1,0-0.2,0-0.3s0.1-0.1,0.1-0.2l0.3-0.1c0,0.1,0.1,0.1,0.2,0.2S175.4,838.2,175.4,838.3z
	 M176.9,846.8c-0.1,0-0.1-0.1-0.1,0s-0.1,0-0.1,0c-0.1-0.1-0.2-0.1-0.2-0.1s0,0,0,0c-0.1-0.1-0.1-0.2-0.1-0.3s0.1-0.1,0.2-0.2
	c0.2,0,0.2,0,0.2,0s0,0,0.1,0c0.2,0.1,0.3,0.3,0.2,0.4S177,846.8,176.9,846.8z M177.4,838c0,0.1,0,0.1,0,0.2s0.1,0.1,0.1,0.1
	c0,0.1,0,0.1-0.1,0.2s-0.1,0.1-0.2,0.1c-0.1,0-0.1,0-0.2,0s-0.1,0-0.2,0c-0.1-0.1-0.1-0.2-0.1-0.2s0,0,0-0.1l0.1-0.2
	c0-0.1,0.1-0.1,0.1-0.1s0.1,0,0.2,0L177.4,838z M178.9,846.1c0,0.1,0.1,0.1,0.1,0.2s0,0.1,0,0.2c-0.2,0.2-0.3,0.3-0.3,0.2
	s-0.1,0-0.2,0c0,0-0.1-0.1-0.1-0.2s0-0.1-0.1-0.2c0-0.1,0-0.1,0.1-0.1s0.1-0.1,0.1-0.2c0.1,0,0.2,0,0.2,0S178.8,846.1,178.9,846.1z
	 M179.3,838.3c-0.1,0.2-0.1,0.3-0.2,0.3s-0.2,0.1-0.3,0c-0.1-0.1-0.2-0.2-0.2-0.2s0,0,0-0.1l0.1-0.3c0.1-0.1,0.2-0.2,0.3-0.2
	s0.1,0,0.1,0c0.1,0,0.1,0.1,0.3,0.2S179.4,838.2,179.3,838.3z M181,838c0.1,0.1,0.2,0.2,0.2,0.3s0,0.1,0,0.2
	c-0.1,0.1-0.2,0.2-0.2,0.2s-0.1,0-0.1,0.1c-0.1,0-0.2,0-0.2,0s-0.2-0.1-0.2-0.1c0-0.1,0-0.2,0-0.3s0-0.2,0-0.2c0,0,0.1-0.1,0.2-0.1
	s0.1-0.1,0.1-0.1L181,838z"/>
<path fill="#FFFFFF" d="M185.3,846.7c-0.1,0.1-0.2,0.2-0.2,0.2c-0.1,0-0.2,0-0.2,0s-0.1,0-0.2,0c0,0-0.1-0.1-0.1-0.1
	s-0.1-0.1-0.1-0.2c0,0,0-0.1,0-0.1s0-0.1,0-0.2c0.1-0.1,0.2-0.2,0.2-0.2s0.1,0,0.1-0.1c0.1,0,0.1,0.1,0.2,0.1s0.2,0,0.2,0.1
	C185.3,846.5,185.3,846.6,185.3,846.7C185.3,846.7,185.3,846.7,185.3,846.7z M184.4,841c0,0,0-0.1,0-0.1s0-0.1,0-0.1
	c0.1-0.1,0.2-0.2,0.2-0.2c0.1-0.1,0.1-0.1,0.2-0.1s0.1,0,0.2,0c0.1,0.1,0.2,0.2,0.2,0.3s0,0.1,0.1,0.1c0,0.1-0.1,0.2-0.2,0.3
	s-0.2,0.1-0.3,0.1c-0.1,0-0.2,0-0.2-0.1S184.5,841,184.4,841z M184.4,843.9c0-0.1,0-0.2,0-0.2s0-0.1,0-0.2c0.2-0.1,0.2-0.2,0.3-0.2
	c0.2,0,0.4,0,0.4,0.1s0.1,0.1,0.2,0.1c0,0.1,0,0.2,0,0.3c-0.1,0-0.1,0.1-0.1,0.1s-0.1,0.1-0.2,0.1c-0.1,0-0.2,0-0.2,0s-0.1,0-0.1,0
	L184.4,843.9z M184.6,837.8c0.1,0,0.1,0,0.2,0s0.1,0,0.2,0c0.2,0.1,0.2,0.1,0.3,0.1c0,0.1,0.1,0.2,0,0.3s0,0.1,0,0.1
	c-0.1,0.2-0.3,0.3-0.6,0.2c0,0-0.1,0-0.1-0.1s-0.1-0.1-0.1-0.1c0-0.2,0-0.3,0-0.4L184.6,837.8z M184.8,849.7
	c-0.1-0.2-0.2-0.2-0.2-0.3v-0.3c0.1-0.1,0.2-0.2,0.3-0.2s0.2-0.1,0.3-0.1c0.1,0.1,0.2,0.2,0.2,0.2s0.1,0,0.1,0c0,0.2,0,0.3,0,0.4
	s-0.1,0.1-0.2,0.2c-0.1,0-0.1,0-0.2,0S184.9,849.7,184.8,849.7z M185.1,852c0.1-0.2,0.3-0.3,0.5-0.3c0.1,0.1,0.1,0.2,0.2,0.2
	s0.1,0.1,0.1,0.2c-0.1,0.2-0.2,0.3-0.2,0.4c-0.1,0-0.2,0.1-0.3,0.1s-0.2,0-0.2-0.1c-0.1,0-0.1-0.1-0.1-0.2S185.2,852.1,185.1,852z
	 M187.7,854.2c0,0.2-0.1,0.3-0.1,0.3s-0.1,0.1-0.1,0.1c-0.1,0-0.1-0.1-0.2-0.1s-0.1,0-0.2,0c0-0.1-0.1-0.1-0.1-0.1s-0.1-0.1-0.1-0.1
	c0-0.1,0-0.1,0.1-0.2s0-0.1,0-0.2c0.1-0.1,0.3-0.2,0.5-0.1c0.1,0.1,0.2,0.1,0.2,0.1s0,0,0.1,0L187.7,854.2z M190.4,855.3
	c-0.1,0.2-0.2,0.3-0.3,0.4s-0.3,0.1-0.4,0c0-0.1-0.1-0.1-0.1-0.2s0-0.1,0-0.2s0-0.2,0.1-0.2s0.1-0.1,0.2-0.2c0.1,0,0.1,0,0.2,0
	s0.1,0,0.2,0c0,0.1,0.1,0.1,0.1,0.2S190.4,855.3,190.4,855.3z M193.4,855.2c0,0,0,0.1,0,0.1s0,0.1,0,0.2c0,0.1-0.1,0.1-0.1,0.2
	s-0.1,0.1-0.2,0.1c-0.1,0-0.1,0-0.2-0.1s-0.1-0.1-0.2,0c0,0-0.1-0.1-0.1-0.1s-0.1,0-0.1-0.1c0-0.1,0-0.2,0.1-0.3s0.1-0.1,0.1-0.2
	c0.1,0,0.1,0,0.2,0s0.1,0,0.2,0C193.2,855.1,193.3,855.2,193.4,855.2C193.3,855.2,193.4,855.2,193.4,855.2z M195.4,854.7
	c0-0.1,0-0.1,0-0.2s-0.1-0.1-0.1-0.1c0.1,0,0.1-0.1,0.1-0.1s0-0.1,0.1-0.1s0.1-0.1,0.1-0.1s0.1,0,0.2,0c0.2,0.1,0.2,0.1,0.2,0.1
	s0,0,0,0c0.1,0.2,0.1,0.3,0.1,0.3s0,0,0,0.1c-0.1,0.2-0.1,0.2-0.1,0.2c-0.1,0.1-0.2,0.1-0.3,0L195.4,854.7z M197.1,852.2
	c0.2,0,0.3-0.1,0.4-0.1s0.2,0,0.2,0c0.2,0.2,0.2,0.3,0.3,0.3s0,0.1,0,0.2c0,0-0.1,0.1-0.1,0.1s-0.1,0.1-0.1,0.2c-0.1,0-0.2,0-0.2,0
	s-0.1,0-0.1,0s-0.1-0.1-0.1-0.1s-0.1-0.1-0.1-0.1c0-0.1-0.1-0.1-0.1-0.2S197.1,852.4,197.1,852.2L197.1,852.2z M198.7,850.1
	c-0.1,0-0.1,0-0.2,0.1s-0.1,0.1-0.2,0.1c-0.1,0-0.1,0-0.2-0.1s-0.1-0.1-0.2-0.1c0-0.2,0-0.4,0.1-0.4s0.1-0.1,0.1-0.2
	c0.2,0,0.3,0,0.4,0c0,0.1,0.1,0.1,0.1,0.1s0.1,0.1,0.1,0.1c0,0.1,0,0.2,0,0.2S198.7,850,198.7,850.1z M198.9,843.7
	c0,0.1,0,0.2,0,0.2s0,0.1,0.1,0.2c-0.1,0-0.2,0.1-0.2,0.2c-0.1,0-0.3,0-0.4,0s-0.2-0.1-0.2-0.3c0-0.1,0-0.1,0-0.2s0-0.1,0.1-0.2
	c0.2-0.1,0.3-0.1,0.3-0.1s0.1,0,0.2,0L198.9,843.7z M198.7,838.5c-0.1,0-0.2,0-0.2,0s0,0-0.1,0c-0.1,0-0.2-0.1-0.3-0.3
	s0-0.3,0.1-0.4c0,0,0.1,0,0.2,0s0.1,0,0.2,0c0.1,0.1,0.2,0.2,0.3,0.3C199,838.2,198.9,838.4,198.7,838.5z M198.8,847.4
	c-0.1,0-0.2,0-0.2,0s-0.2,0-0.2,0c-0.1-0.1-0.2-0.2-0.2-0.2s0,0,0,0c0-0.1,0-0.2,0-0.3s0.1-0.1,0.2-0.2c0.1,0,0.1,0,0.2,0
	s0.2,0,0.2,0.1c0,0.1,0.1,0.1,0.1,0.2s0.1,0.1,0,0.2c0,0.1,0,0.1-0.1,0.2S198.8,847.3,198.8,847.4z M198.3,841.3
	c0,0-0.1-0.1-0.1-0.1s-0.1-0.1-0.1-0.1c0-0.2,0-0.4,0-0.4s0.1-0.1,0.1-0.1c0,0,0.1,0,0.2,0s0.1,0,0.2,0c0,0,0.1,0.1,0.2,0.1
	s0.1,0.2,0.1,0.2c0,0.1,0,0.1-0.1,0.2s-0.1,0.1-0.2,0.2c0,0-0.1,0-0.1,0S198.4,841.2,198.3,841.3z"/>
<path fill="#FFFFFF" d="M203.8,850.2c0,0.1,0,0.1,0,0.2s0,0.1,0,0.2c-0.1,0.1-0.2,0.2-0.3,0.2s-0.1,0-0.2,0
	c-0.2-0.1-0.2-0.2-0.2-0.2s0-0.1-0.1-0.1c0-0.1,0-0.1,0-0.2s0.1-0.1,0.1-0.2c0.2,0,0.3-0.1,0.4-0.1
	C203.7,850.1,203.8,850.1,203.8,850.2C203.8,850.2,203.8,850.2,203.8,850.2z M203.6,845.9c-0.1,0-0.2,0-0.2,0s-0.1-0.1-0.2-0.1
	c-0.1-0.1-0.1-0.2-0.1-0.4c0.1-0.1,0.2-0.2,0.3-0.2s0.2,0,0.3,0c0.1,0.1,0.1,0.2,0.1,0.2s0,0,0,0c0,0.1,0,0.2-0.1,0.3
	S203.6,845.8,203.6,845.9z M203.9,843c-0.1,0.2-0.2,0.4-0.3,0.5c-0.1,0-0.3,0-0.4,0c-0.1-0.2-0.1-0.3-0.1-0.4c0.1,0,0.1,0,0.1-0.1
	s0-0.1,0.1-0.1c0.1,0,0.2-0.1,0.3,0c0.1,0,0.2,0.1,0.2,0.1S203.8,842.9,203.9,843z M203.7,855c0,0.1,0,0.2,0,0.2s0,0.1,0,0.2
	c-0.1,0-0.1,0.1-0.2,0.1s-0.1,0.1-0.2,0c0,0-0.1,0-0.2-0.1s-0.1-0.1-0.1-0.2s0-0.1,0-0.1s0-0.1,0-0.1c0,0,0.1-0.1,0.1-0.1
	s0.1-0.1,0.1-0.1C203.5,854.9,203.6,854.9,203.7,855z M203.8,840.7c-0.1,0.1-0.2,0.2-0.2,0.2s0,0,0,0c-0.2,0-0.2,0.1-0.3,0
	c-0.1-0.1-0.2-0.2-0.2-0.2s0,0,0-0.1c0-0.2,0-0.3,0.1-0.4s0.2-0.1,0.3-0.1c0.1,0,0.1,0.1,0.2,0.1s0.1,0.1,0.1,0.2c0,0.1,0,0.1,0,0.2
	S203.8,840.6,203.8,840.7z M203.8,853c-0.1,0.1-0.2,0.2-0.2,0.2c-0.1,0.1-0.2,0.1-0.3,0s-0.2-0.1-0.2-0.2c0-0.2,0-0.3,0-0.3
	s0,0,0.1,0c0.1-0.1,0.2-0.2,0.3-0.2s0.1,0,0.1,0c0.1,0.1,0.2,0.1,0.2,0.2S203.8,852.9,203.8,853z M203.6,837.7
	c0.1,0.1,0.1,0.1,0.1,0.2s0,0.1,0.1,0.1c0,0.1,0,0.1,0,0.2s0,0.1,0,0.2c-0.1,0.1-0.2,0.2-0.2,0.2c-0.1,0-0.2,0-0.3,0
	s-0.1-0.1-0.2-0.1c-0.1-0.2-0.1-0.3-0.1-0.3s0.1-0.1,0.1-0.1c0.2-0.2,0.3-0.2,0.3-0.2S203.6,837.7,203.6,837.7z M203.8,847.7
	c0,0,0.1,0.1,0.1,0.2s0,0.1,0,0.2c0,0,0,0.1-0.1,0.1s-0.1,0.1-0.1,0.1c-0.1,0-0.2,0.1-0.4,0.1c-0.2-0.2-0.3-0.4-0.2-0.6
	c0.1-0.1,0.2-0.2,0.3-0.2s0.1,0,0.1-0.1L203.8,847.7z M206.1,854.7c0,0.1,0.1,0.1,0.1,0.2s0.1,0.2,0,0.3c-0.1,0.1-0.2,0.2-0.2,0.2
	s-0.1,0-0.1,0c-0.2,0-0.3,0-0.4-0.2s-0.1-0.3,0.1-0.5c0.2,0,0.2,0,0.3,0H206.1z M208.5,854.7c0,0.1,0.1,0.2,0.1,0.3s0,0.2,0,0.3
	c-0.1,0.1-0.2,0.2-0.2,0.2s0,0,0,0c0,0-0.1,0-0.2,0s-0.1,0-0.2,0c-0.1-0.2-0.1-0.3-0.1-0.3s0-0.1,0-0.1c0.1-0.1,0.2-0.1,0.3-0.2
	S208.3,854.6,208.5,854.7z M210.4,854.7c0.1,0.2,0.2,0.2,0.2,0.3s0,0.1,0,0.1c0,0,0,0.1,0,0.1s0,0.1,0,0.2c-0.1,0-0.1,0.1-0.2,0.1
	s-0.1,0-0.2,0c0,0-0.1,0-0.1-0.1s-0.1-0.1-0.1-0.1c0-0.2,0-0.3,0-0.4s0.1-0.1,0.1-0.2c0.1,0,0.1,0,0.2,0S210.3,854.7,210.4,854.7z
	 M212.3,855.4c-0.2,0-0.4-0.1-0.5-0.3c0-0.2,0.1-0.3,0.1-0.4c0.1-0.1,0.2-0.1,0.2-0.1s0.1,0,0.1,0c0.1,0,0.1,0,0.2,0.1
	s0.1,0.1,0.2,0.2c0,0.1,0,0.2,0,0.2s0,0,0,0.1c-0.1,0-0.1,0-0.1,0.1S212.3,855.4,212.3,855.4z M214.5,855.1c0,0.1-0.1,0.1-0.1,0.2
	s0,0-0.1,0.1c-0.1,0.1-0.2,0.2-0.2,0.2s-0.1,0-0.1,0c-0.1,0-0.2,0-0.2,0s0,0,0,0c-0.1-0.1-0.1-0.2-0.1-0.2s0-0.1,0-0.1
	c0-0.1,0.1-0.2,0.2-0.3c0.2,0,0.3,0,0.3,0s0.1,0.1,0.2,0.1c0,0.1,0,0.1,0.1,0.2S214.5,855.1,214.5,855.1z"/>
<path fill="#FFFFFF" d="M218.1,850.2c0,0.1,0,0.1,0,0.2s0,0.1,0,0.2c-0.1,0.1-0.2,0.2-0.3,0.2s-0.1,0-0.2,0
	c-0.2-0.1-0.2-0.2-0.2-0.2s0-0.1-0.1-0.1c0-0.1,0-0.1,0-0.2s0.1-0.1,0.1-0.2c0.2,0,0.3-0.1,0.4-0.1
	C217.9,850.1,218,850.1,218.1,850.2C218,850.2,218.1,850.2,218.1,850.2z M217.8,845.9c-0.1,0-0.2,0-0.2,0s-0.1-0.1-0.2-0.1
	c-0.1-0.1-0.1-0.2-0.1-0.4c0.1-0.1,0.2-0.2,0.3-0.2s0.2,0,0.3,0c0.1,0.1,0.1,0.2,0.1,0.2s0,0,0,0c0,0.1,0,0.2-0.1,0.3
	S217.8,845.8,217.8,845.9z M218.1,843c-0.1,0.2-0.2,0.4-0.3,0.5c-0.1,0-0.3,0-0.4,0c-0.1-0.2-0.1-0.3-0.1-0.4c0.1,0,0.1,0,0.1-0.1
	s0-0.1,0.1-0.1c0.1,0,0.2-0.1,0.3,0c0.1,0,0.2,0.1,0.2,0.1S218.1,842.9,218.1,843z M218,855c0,0.1,0,0.2,0,0.2s0,0.1,0,0.2
	c-0.1,0-0.1,0.1-0.2,0.1s-0.1,0.1-0.2,0c0,0-0.1,0-0.2-0.1s-0.1-0.1-0.1-0.2s0-0.1,0-0.1s0-0.1,0-0.1c0,0,0.1-0.1,0.1-0.1
	s0.1-0.1,0.1-0.1C217.7,854.9,217.9,854.9,218,855z M218,840.7c-0.1,0.1-0.2,0.2-0.2,0.2s0,0,0,0c-0.2,0-0.2,0.1-0.3,0
	c-0.1-0.1-0.2-0.2-0.2-0.2s0,0,0-0.1c0-0.2,0-0.3,0.1-0.4s0.2-0.1,0.3-0.1c0.1,0,0.1,0.1,0.2,0.1s0.1,0.1,0.1,0.2c0,0.1,0,0.1,0,0.2
	S218,840.6,218,840.7z M218.1,853c-0.1,0.1-0.2,0.2-0.2,0.2c-0.1,0.1-0.2,0.1-0.3,0s-0.2-0.1-0.2-0.2c0-0.2,0-0.3,0-0.3s0,0,0.1,0
	c0.1-0.1,0.2-0.2,0.3-0.2s0.1,0,0.1,0c0.1,0.1,0.2,0.1,0.2,0.2S218,852.9,218.1,853z M217.9,837.7c0.1,0.1,0.1,0.1,0.1,0.2
	s0,0.1,0.1,0.1c0,0.1,0,0.1,0,0.2s0,0.1,0,0.2c-0.1,0.1-0.2,0.2-0.2,0.2c-0.1,0-0.2,0-0.3,0s-0.1-0.1-0.2-0.1
	c-0.1-0.2-0.1-0.3-0.1-0.3s0.1-0.1,0.1-0.1c0.2-0.2,0.3-0.2,0.3-0.2S217.8,837.7,217.9,837.7z M218,847.7c0,0,0.1,0.1,0.1,0.2
	s0,0.1,0,0.2c0,0,0,0.1-0.1,0.1s-0.1,0.1-0.1,0.1c-0.1,0-0.2,0.1-0.4,0.1c-0.2-0.2-0.3-0.4-0.2-0.6c0.1-0.1,0.2-0.2,0.3-0.2
	s0.1,0,0.1-0.1L218,847.7z M220.3,854.7c0,0.1,0.1,0.1,0.1,0.2s0.1,0.2,0,0.3c-0.1,0.1-0.2,0.2-0.2,0.2s-0.1,0-0.1,0
	c-0.2,0-0.3,0-0.4-0.2s-0.1-0.3,0.1-0.5c0.2,0,0.2,0,0.3,0H220.3z M222.7,854.7c0,0.1,0.1,0.2,0.1,0.3s0,0.2,0,0.3
	c-0.1,0.1-0.2,0.2-0.2,0.2s0,0,0,0c0,0-0.1,0-0.2,0s-0.1,0-0.2,0c-0.1-0.2-0.1-0.3-0.1-0.3s0-0.1,0-0.1c0.1-0.1,0.2-0.1,0.3-0.2
	S222.6,854.6,222.7,854.7z M224.7,854.7c0.1,0.2,0.2,0.2,0.2,0.3s0,0.1,0,0.1c0,0,0,0.1,0,0.1s0,0.1,0,0.2c-0.1,0-0.1,0.1-0.2,0.1
	s-0.1,0-0.2,0c0,0-0.1,0-0.1-0.1s-0.1-0.1-0.1-0.1c0-0.2,0-0.3,0-0.4s0.1-0.1,0.1-0.2c0.1,0,0.1,0,0.2,0S224.6,854.7,224.7,854.7z
	 M226.5,855.4c-0.2,0-0.4-0.1-0.5-0.3c0-0.2,0.1-0.3,0.1-0.4c0.1-0.1,0.2-0.1,0.2-0.1s0.1,0,0.1,0c0.1,0,0.1,0,0.2,0.1
	s0.1,0.1,0.2,0.2c0,0.1,0,0.2,0,0.2s0,0,0,0.1c-0.1,0-0.1,0-0.1,0.1S226.6,855.4,226.5,855.4z M228.7,855.1c0,0.1-0.1,0.1-0.1,0.2
	s0,0-0.1,0.1c-0.1,0.1-0.2,0.2-0.2,0.2s-0.1,0-0.1,0c-0.1,0-0.2,0-0.2,0s0,0,0,0c-0.1-0.1-0.1-0.2-0.1-0.2s0-0.1,0-0.1
	c0-0.1,0.1-0.2,0.2-0.3c0.2,0,0.3,0,0.3,0s0.1,0.1,0.2,0.1c0,0.1,0,0.1,0.1,0.2S228.7,855.1,228.7,855.1z"/>
<path fill="#FFFFFF" d="M240.9,845.6c0,0.4-0.2,0.6-0.5,0.6c-0.1-0.1-0.2-0.2-0.2-0.2s-0.1,0-0.1-0.1c0,0,0-0.1,0-0.1s0-0.1,0-0.2
	c0.1-0.1,0.2-0.2,0.2-0.2s0.1,0,0.1,0c0.1,0,0.1,0.1,0.2,0.1S240.8,845.6,240.9,845.6z M240.4,848.5c0,0,0.1,0,0.1,0s0.1,0,0.1,0
	c0,0,0.1,0.1,0.1,0.1s0.1,0,0.1,0.1c0.1,0.1,0.1,0.2,0.1,0.3c-0.1,0.2-0.1,0.2-0.2,0.3s0,0-0.1,0.1c-0.2,0-0.3,0-0.4,0
	s-0.1-0.1-0.1-0.1c-0.1-0.2-0.1-0.4,0-0.4S240.3,848.6,240.4,848.5z M240.8,842.9c0-0.2,0.1-0.3,0.1-0.4c0.2-0.1,0.3-0.1,0.4-0.1
	s0.1,0,0.2,0c0.1,0.2,0.2,0.3,0.1,0.3s0,0.1,0,0.2c-0.2,0.1-0.3,0.1-0.4,0.1s-0.1,0-0.2,0c0-0.1,0-0.1-0.1-0.1
	S240.8,842.9,240.8,842.9z M241.4,851.5c0.1,0,0.1,0,0.2,0s0.1,0,0.1,0c0.1,0.1,0.2,0.1,0.2,0.1s0.1,0,0.1,0.1c0,0.1,0,0.2,0,0.2
	s0,0.1-0.1,0.2l-0.3,0.1c-0.1,0-0.2,0-0.2-0.1s-0.1,0-0.2,0c-0.1-0.1-0.1-0.2-0.1-0.3s0-0.1,0-0.2L241.4,851.5z M242.8,840
	c0.2,0,0.3,0.1,0.4,0.2s0.1,0.1,0.1,0.2c0,0.1,0,0.1-0.1,0.2s-0.1,0.1-0.2,0.1c-0.1,0.1-0.2,0.1-0.3,0.1s-0.1-0.1-0.2-0.2
	c0-0.1-0.1-0.1-0.1-0.2s0-0.1,0-0.2s0.1-0.2,0.2-0.2L242.8,840z M244.1,854.4c0,0-0.1,0-0.2,0.1s-0.1,0-0.2,0
	c-0.1-0.1-0.2-0.2-0.3-0.3c0-0.2,0.1-0.3,0.2-0.5c0.1,0,0.3,0,0.4,0.1s0.2,0.2,0.2,0.3c0,0.1,0,0.1-0.1,0.2S244.1,854.3,244.1,854.4
	z M245.5,838.6c0,0.1,0,0.1,0,0.2s0,0.1,0,0.2c-0.1,0-0.1,0.1-0.2,0.2s-0.2,0.1-0.3,0.1c-0.1-0.1-0.1-0.1-0.2-0.2s0,0,0,0
	c-0.1-0.2-0.1-0.3-0.1-0.3s0.1-0.1,0.1-0.2c0.1-0.1,0.2-0.1,0.3,0S245.5,838.6,245.5,838.6z M246.4,855.3c0.1,0,0.1,0,0.2-0.1
	s0.1-0.1,0.2-0.1c0.2,0,0.3,0.1,0.4,0.3s0,0.3-0.1,0.4c-0.1,0-0.2,0.1-0.2,0.1s-0.1,0-0.1,0c-0.1,0-0.2-0.1-0.3-0.2
	c-0.1-0.1-0.1-0.2-0.1-0.2S246.4,855.3,246.4,855.3z M248.1,837.6c0.1,0.1,0.2,0.2,0.3,0.2c0,0,0,0.1,0,0.1s0,0.1,0,0.1
	c0,0.1-0.1,0.2-0.2,0.2s-0.2,0.1-0.3,0.1c-0.1-0.1-0.2-0.2-0.3-0.2s-0.1,0-0.1-0.1c0-0.1,0.1-0.2,0.1-0.2s0,0,0-0.1
	c0.1-0.1,0.2-0.2,0.3-0.2S248,837.6,248.1,837.6z M249.7,855.7c-0.1-0.1-0.2-0.1-0.3-0.2c0,0,0-0.1,0-0.1s0-0.1,0-0.2
	c0.1-0.1,0.2-0.2,0.2-0.2s0.1,0,0.1,0s0.1,0,0.1,0s0.1,0.1,0.1,0.1c0,0,0.1,0.1,0.1,0.2s0,0.2,0,0.2
	C249.9,855.6,249.8,855.7,249.7,855.7z M251.1,838.2c0,0.2-0.1,0.2-0.1,0.2s-0.1,0-0.1,0c0,0.2,0,0.3-0.1,0.3s-0.2,0-0.3,0
	c0-0.1-0.1-0.2-0.1-0.2s0-0.2,0-0.2c0.1-0.1,0.2-0.1,0.2-0.2c0.2,0,0.3,0,0.4,0.1L251.1,838.2z M252.9,854.3c-0.2,0-0.3,0.1-0.4,0.1
	s-0.1,0-0.2,0s-0.1,0-0.1-0.1s-0.1-0.1-0.2-0.1c0.1-0.2,0.1-0.3,0.2-0.3c0.2-0.1,0.3-0.1,0.4-0.1c0.1,0.1,0.2,0.2,0.2,0.3
	S252.9,854.3,252.9,854.3z M252.9,840c-0.1,0-0.2-0.1-0.3-0.1s-0.2-0.1-0.2-0.2c0-0.1,0-0.1,0-0.2s0-0.1,0.1-0.2
	c0.2-0.1,0.4-0.2,0.4-0.1s0.2,0.1,0.2,0.1c0,0.2,0,0.2,0,0.3s0,0,0,0.1C253,839.9,252.9,839.9,252.9,840
	C252.9,839.9,252.9,840,252.9,840z M254.9,841.2c-0.1,0.2-0.1,0.3-0.2,0.3s-0.1,0.1-0.1,0.1c-0.1,0-0.1,0-0.2,0s-0.1,0-0.2,0
	c0-0.1-0.1-0.1-0.1-0.2s-0.1-0.1-0.1-0.2c0.1-0.2,0.1-0.3,0.1-0.2s0,0,0.1,0c0.2,0,0.3-0.1,0.3-0.1s0.1,0,0.1,0c0,0,0.1,0.1,0.1,0.1
	S254.8,841.2,254.9,841.2z M255,851.9c0,0.2-0.1,0.3-0.2,0.3c-0.1,0.1-0.2,0.1-0.3,0.1s-0.1,0-0.2-0.1c-0.1-0.1-0.1-0.2-0.1-0.3
	c0-0.2,0.1-0.3,0.2-0.3s0.2-0.1,0.3,0c0,0.1,0,0.1,0.1,0.2S255,851.9,255,851.9z M256,843.9c-0.1,0.1-0.2,0.2-0.4,0.1
	c-0.1,0-0.1,0-0.2-0.1s-0.1-0.1-0.1-0.1c0-0.1,0-0.2,0-0.2s0-0.1,0-0.2c0.1,0,0.1-0.1,0.2-0.1s0.2-0.1,0.3,0
	c0.1,0.2,0.2,0.3,0.2,0.4S256,843.8,256,843.9z M256.2,848.9c0,0.1,0.1,0.2,0.1,0.2s0,0.1,0,0.2c-0.1,0.1-0.3,0.2-0.6,0.1
	c0-0.1-0.1-0.1-0.1-0.2s0-0.1,0-0.3c0,0,0.1-0.1,0.1-0.1s0.1-0.1,0.1-0.1c0.1,0,0.2,0,0.2,0S256.1,848.9,256.2,848.9z M256.4,846
	c0,0,0,0.1,0,0.2s0,0.1,0,0.2c-0.1,0.2-0.3,0.3-0.6,0.2c-0.1-0.2-0.2-0.3-0.2-0.4s0-0.1,0.1-0.3c0,0,0.1,0,0.2,0s0.1,0,0.2,0
	C256.2,846,256.3,846,256.4,846z"/>
<path fill="#FFFFFF" d="M260.8,840.4c-0.1,0-0.2,0-0.3,0.1c-0.1,0-0.2-0.1-0.2-0.1s-0.1-0.1-0.2-0.2c0.2-0.2,0.3-0.3,0.4-0.4
	c0.1,0,0.2,0,0.2,0.1s0.1,0.1,0.2,0.2c0,0,0,0.1,0,0.2S260.8,840.4,260.8,840.4z M260.6,855.4c-0.1,0-0.2-0.1-0.3,0
	c-0.1-0.1-0.2-0.2-0.2-0.3c0-0.1,0-0.1,0-0.2s0-0.1,0-0.1c0.2-0.1,0.3-0.2,0.3-0.2s0.1,0,0.1,0c0.1,0,0.1,0.1,0.2,0.2
	s0.1,0.1,0.1,0.2C260.8,855.1,260.7,855.3,260.6,855.4z M260.9,842.1c-0.1,0.1-0.1,0.2-0.1,0.2s0,0,0,0.1c-0.1,0-0.2,0-0.3,0.1
	s-0.2,0-0.3,0c0-0.1-0.1-0.1-0.1-0.2s0-0.1,0-0.2c0.1-0.1,0.2-0.2,0.3-0.2s0.1,0,0.1,0c0.1,0,0.1,0,0.2,0.1s0.1,0.1,0.2,0.1
	C260.9,841.9,260.9,842,260.9,842.1z M260.8,848.9c-0.1,0-0.1,0.1-0.2,0.1s-0.2,0-0.3,0c0,0,0-0.1-0.1-0.2s-0.1-0.1-0.1-0.2
	c0.1-0.1,0.1-0.2,0.1-0.2s0,0,0-0.1c0.2,0,0.3-0.1,0.4-0.1c0.1,0,0.1,0.1,0.2,0.1s0.1,0.1,0.2,0.1c0,0.2,0,0.3-0.1,0.3
	S260.8,848.8,260.8,848.9z M261,846.4c-0.1,0.2-0.1,0.3-0.2,0.3s-0.1,0.1-0.1,0.1c-0.1,0-0.2,0-0.3,0c0-0.1,0-0.1-0.1-0.1
	s-0.1-0.1-0.1-0.1c0-0.1,0-0.2,0-0.2s0.1-0.1,0.1-0.2c0.1,0,0.1,0,0.2,0s0.1,0,0.2,0c0,0,0.1,0.1,0.2,0.1S260.9,846.3,261,846.4z
	 M260.9,850.4c0,0,0.1,0.1,0.1,0.1s0,0.1,0.1,0.1c0,0.1,0,0.1-0.1,0.1s0,0.1,0,0.2c-0.1,0-0.1,0.1-0.2,0.1c-0.1,0-0.1,0-0.2,0
	s-0.1,0-0.2,0c0-0.1-0.1-0.1-0.1-0.2s-0.1-0.1,0-0.3c0.1-0.2,0.2-0.3,0.3-0.2S260.7,850.4,260.9,850.4z M261,838.1
	c0,0.1-0.1,0.2-0.1,0.2s0,0.1,0,0.1c-0.2,0.1-0.3,0.1-0.3,0.1s-0.1,0-0.1,0c-0.1,0-0.1-0.1-0.2-0.1s-0.1-0.1-0.1-0.2
	c0-0.1,0-0.2,0.1-0.3c0.1-0.1,0.2-0.1,0.4,0c0,0.1,0.1,0.1,0.2,0.1S261,838.1,261,838.1z M261.1,844.2c-0.1,0.2-0.1,0.3-0.2,0.3
	s-0.1,0.1,0,0.2c-0.1,0-0.1,0-0.2,0s-0.1,0-0.2,0c0,0-0.1-0.1-0.1-0.1s-0.1-0.1-0.1-0.1c0-0.1,0-0.1,0-0.2s0-0.1,0-0.1
	c0-0.1,0.1-0.2,0.3-0.2s0.3,0,0.3,0.1L261.1,844.2z M260.8,852.4c0,0.1,0.1,0.2,0.1,0.2s0.1,0,0.1,0.1c0,0.1-0.1,0.2-0.1,0.3
	c-0.4,0.1-0.6,0-0.6-0.3c0.1-0.2,0.2-0.3,0.2-0.3s0.1-0.1,0.1-0.1c0,0,0.1,0,0.2,0S260.8,852.4,260.8,852.4z M262.7,846.3
	c0,0.1,0,0.1,0,0.2s0,0.1,0,0.1c-0.1,0.1-0.1,0.1-0.3,0.2s-0.2,0.1-0.4,0c0-0.1-0.1-0.1-0.1-0.2s0-0.1,0-0.2
	c0.1-0.2,0.2-0.3,0.2-0.3c0.2,0,0.3,0,0.4,0.1S262.6,846.3,262.7,846.3z M263,838.6c-0.1,0-0.1,0-0.2,0s-0.1,0-0.2-0.1
	c0,0-0.1-0.1-0.2-0.1s-0.1,0-0.1-0.1c0-0.1,0-0.1,0-0.2s0.1-0.1,0-0.2c0.1,0,0.1,0,0.2-0.1s0.1-0.1,0.2,0c0.1,0,0.2,0,0.2,0.1
	s0.1,0.1,0.1,0.2c0,0.1,0,0.2-0.1,0.2S263,838.6,263,838.6z M264.6,846.1c0,0,0.1,0.1,0.2,0.1s0.1,0.1,0.2,0.2
	c-0.1,0.2-0.1,0.3-0.2,0.4s-0.1,0.1-0.2,0.1c-0.2-0.1-0.3-0.1-0.3-0.1s0,0,0,0c-0.1-0.2-0.1-0.3-0.1-0.3s0-0.1,0.1-0.1
	c0.1-0.1,0.2-0.1,0.2-0.1s0,0,0.1,0L264.6,846.1z M265.5,838.3c0,0.1,0,0.1-0.1,0.2s0,0.1,0,0.2c-0.1,0.1-0.2,0.1-0.2,0.1
	s-0.1,0-0.1,0c-0.2-0.1-0.3-0.1-0.4-0.2c0-0.1,0-0.2,0-0.3s0.1-0.1,0.1-0.2l0.3-0.1c0,0.1,0.1,0.1,0.2,0.2S265.4,838.2,265.5,838.3z
	 M266.9,846.8c-0.1,0-0.1-0.1-0.1,0s-0.1,0-0.1,0c-0.1-0.1-0.2-0.1-0.2-0.1s0,0,0,0c-0.1-0.1-0.1-0.2-0.1-0.3s0.1-0.1,0.2-0.2
	c0.2,0,0.2,0,0.2,0s0,0,0.1,0c0.2,0.1,0.3,0.3,0.2,0.4S267,846.8,266.9,846.8z M267.4,838c0,0.1,0,0.1,0,0.2s0.1,0.1,0.1,0.1
	c0,0.1,0,0.1-0.1,0.2s-0.1,0.1-0.2,0.1c-0.1,0-0.1,0-0.2,0s-0.1,0-0.2,0c-0.1-0.1-0.1-0.2-0.1-0.2s0,0,0-0.1l0.1-0.2
	c0-0.1,0.1-0.1,0.1-0.1s0.1,0,0.2,0L267.4,838z M269,846.1c0,0.1,0.1,0.1,0.1,0.2s0,0.1,0,0.2c-0.2,0.2-0.3,0.3-0.3,0.2
	s-0.1,0-0.2,0c0,0-0.1-0.1-0.1-0.2s0-0.1-0.1-0.2c0-0.1,0-0.1,0.1-0.1s0.1-0.1,0.1-0.2c0.1,0,0.2,0,0.2,0S268.8,846.1,269,846.1z
	 M269.3,838.3c-0.1,0.2-0.1,0.3-0.2,0.3s-0.2,0.1-0.3,0c-0.1-0.1-0.2-0.2-0.2-0.2s0,0,0-0.1l0.1-0.3c0.1-0.1,0.2-0.2,0.3-0.2
	s0.1,0,0.1,0c0.1,0,0.1,0.1,0.3,0.2S269.4,838.2,269.3,838.3z M271.1,838c0.1,0.1,0.2,0.2,0.2,0.3s0,0.1,0,0.2
	c-0.1,0.1-0.2,0.2-0.2,0.2s-0.1,0-0.1,0.1c-0.1,0-0.2,0-0.2,0s-0.2-0.1-0.2-0.1c0-0.1,0-0.2,0-0.3s0-0.2,0-0.2c0,0,0.1-0.1,0.2-0.1
	s0.1-0.1,0.1-0.1L271.1,838z"/>
<path fill="#FFFFFF" d="M283.9,853.5c0,0.1,0,0.1,0,0.2s0,0.1,0,0.2l-0.3,0.2c-0.1,0-0.2,0.1-0.2,0s-0.1,0-0.2,0
	c-0.1-0.1-0.2-0.2-0.2-0.2s0-0.1,0-0.1c0.1-0.1,0.2-0.2,0.2-0.2c0,0,0.1-0.1,0.1-0.1s0.1,0,0.2-0.1c0.1,0,0.1,0,0.2,0.1
	S283.9,853.4,283.9,853.5z M284,842.3c0,0.1,0,0.1,0,0.2s0,0.1,0,0.1c0,0.1-0.1,0.1-0.2,0.2c-0.1,0-0.1,0-0.2,0s-0.1-0.1-0.2-0.1
	c-0.1-0.2-0.1-0.3-0.1-0.4c0.1-0.1,0.1-0.2,0.2-0.2s0.1,0,0.1-0.1c0.1,0,0.2,0,0.3,0.1S283.9,842.2,284,842.3z M284.2,839.6
	c0,0,0.1,0,0.2,0s0.1,0,0.1,0c0,0.1,0,0.1,0,0.2s0,0.2,0,0.2c-0.2,0.1-0.3,0.1-0.4,0.1s-0.1,0-0.2,0c-0.1-0.1-0.2-0.1-0.2-0.2
	s-0.1-0.2,0-0.3c0.1-0.1,0.2-0.2,0.3-0.2L284.2,839.6z M284.5,844.5c0.1,0,0.1,0,0.2,0s0.1,0,0.2,0c0,0,0.1,0.1,0.1,0.1
	s0.1,0.1,0.2,0.1c0,0.2,0,0.3,0,0.3s0,0.1-0.1,0.1c-0.1,0.1-0.2,0.1-0.2,0.1s0,0-0.1,0c-0.2-0.1-0.2-0.2-0.3-0.2s0,0,0,0
	c-0.1-0.2-0.1-0.3,0-0.4S284.5,844.6,284.5,844.5z M285.6,854.5c0.1,0,0.2-0.1,0.2,0s0.2,0.1,0.2,0c0,0.1,0.1,0.1,0.1,0.2
	s0.1,0.1,0.1,0.1c-0.1,0.3-0.3,0.4-0.6,0.4c-0.1,0-0.1-0.1-0.1-0.2s-0.1-0.1-0.1-0.2c0-0.1,0-0.1,0-0.2S285.5,854.6,285.6,854.5
	L285.6,854.5z M285.8,838.8c0-0.1,0-0.1,0-0.2s-0.1-0.1-0.1-0.2c0.2-0.3,0.4-0.4,0.6-0.4c0.1,0.1,0.2,0.2,0.2,0.3s0,0.1,0,0.2
	c-0.2,0.1-0.2,0.2-0.3,0.2s-0.1,0-0.1,0c0,0-0.1,0-0.1,0S285.9,838.8,285.8,838.8z M287.7,846c0,0.1-0.1,0.2-0.1,0.3
	c-0.1,0-0.2,0-0.3,0s-0.2,0-0.3-0.1c0-0.1-0.1-0.2-0.1-0.3s0-0.2,0.1-0.3c0,0,0.1,0,0.1,0s0.1,0,0.2,0c0.1,0.1,0.2,0.1,0.2,0.1
	s0.1,0,0.1,0L287.7,846z M288.8,838.1c-0.1,0-0.1,0.1-0.2,0.1s-0.1,0.1-0.2,0.1c-0.1,0-0.1,0-0.2,0s-0.1,0-0.2,0l-0.1-0.4
	c0.2-0.2,0.5-0.2,0.6-0.2c0.1,0.2,0.2,0.3,0.2,0.3S288.8,838.1,288.8,838.1z M288.2,855.6c0-0.1-0.1-0.2-0.1-0.2s0-0.1,0-0.3
	c0.2-0.1,0.3-0.2,0.3-0.1s0.1,0,0.2,0c0.1,0.1,0.2,0.2,0.2,0.2s0.1,0,0.1,0.1c0,0.1,0,0.2,0,0.3s-0.1,0.1-0.2,0.2
	c-0.1,0-0.1,0-0.2,0S288.4,855.6,288.2,855.6z M289.6,846.9c0-0.1,0-0.1,0-0.2s-0.1-0.1-0.1-0.2c0,0,0-0.1,0-0.1s0-0.1,0-0.2
	c0.1,0,0.1-0.1,0.3-0.1s0.2,0,0.3,0c0,0,0,0.1,0.1,0.1s0.1,0.1,0.1,0.2c0,0,0,0.1,0,0.1s0,0.1,0,0.2c-0.1,0-0.1,0.1-0.2,0.1
	s-0.1,0.1-0.3,0L289.6,846.9z M290.3,838.7c0-0.1,0-0.2,0-0.2s0-0.1,0-0.1c0.1-0.1,0.2-0.2,0.3-0.2s0.1,0,0.1,0c0.1,0,0.1,0,0.2,0.1
	s0.1,0.1,0.2,0.1c0,0.2,0,0.4-0.2,0.5c-0.1,0-0.2,0-0.3,0S290.4,838.7,290.3,838.7z M291.4,855.1c-0.1,0-0.1,0-0.2-0.1
	s-0.1-0.1-0.1-0.1c-0.1-0.1-0.1-0.2-0.2-0.2s0,0,0,0c0.1-0.2,0.1-0.2,0.1-0.3s0-0.1,0.1-0.1c0.1,0,0.1,0,0.2-0.1s0.2,0,0.3,0
	c0.1,0.1,0.1,0.1,0.2,0.2s0.1,0.1,0.1,0.2c0,0.1,0,0.2-0.1,0.3S291.5,855,291.4,855.1z M292.3,839.2c0.1,0.1,0.3,0.2,0.4,0.2
	c0,0.1,0.1,0.1,0,0.2s-0.1,0.1-0.1,0.2c-0.1,0-0.2,0.1-0.3,0.1s-0.2,0-0.3-0.1c0,0-0.1-0.1-0.1-0.1s0-0.1-0.1-0.2
	c0-0.1,0-0.1,0.1-0.2s0.1-0.1,0.1-0.2L292.3,839.2z M292.5,847.3c0,0,0.1,0.1,0.1,0.1s0.1,0,0.1,0.1c0,0.1,0.1,0.2,0.1,0.2s0,0,0,0
	c0,0.1,0,0.2-0.1,0.3s-0.2,0.1-0.2,0.2c-0.1,0-0.2-0.1-0.3-0.1s-0.2-0.1-0.2-0.2c0-0.2,0-0.3,0-0.4c0,0,0.1-0.1,0.1-0.1
	s0.1-0.1,0.1-0.1L292.5,847.3z M293.3,852.4c0.1,0.1,0.2,0.1,0.2,0.1s0,0,0.1,0c0.1,0.2,0.2,0.3,0.2,0.3s0,0,0,0.1
	c0,0.1,0,0.2,0,0.2s0,0.1,0,0.1c-0.1,0-0.1,0-0.2,0s-0.1,0-0.2,0c0,0-0.1,0-0.1-0.1s-0.1-0.1-0.2,0c0-0.2-0.1-0.3-0.2-0.3
	c0-0.1,0.1-0.1,0.1-0.2s0.1-0.1,0.1-0.2C293.2,852.5,293.3,852.5,293.3,852.4z M294.1,841c0,0.1,0,0.1,0,0.1s-0.1,0.1,0,0.1
	c0,0-0.1,0-0.1,0s-0.1,0-0.2,0c0,0-0.1,0.1-0.1,0s-0.1,0-0.1,0c-0.1-0.1-0.2-0.2-0.2-0.2c0-0.1,0-0.3,0-0.4c0,0,0.1,0,0.1-0.1
	s0.1-0.1,0.1-0.1C293.7,840.6,293.9,840.7,294.1,841z M293.5,850.4c0-0.2,0-0.3,0-0.3s0,0,0-0.1c0-0.1,0.1-0.2,0.1-0.2
	s0.1-0.1,0.1-0.1c0.1,0,0.1,0,0.2,0s0.1,0,0.2,0c0.1,0.1,0.2,0.1,0.2,0.2s0.1,0.2,0.1,0.3c0,0-0.1,0.1-0.1,0.1s0,0.1-0.1,0.1
	c-0.2,0-0.3,0-0.3,0L293.5,850.4z"/>
<path fill="#FFFFFF" d="M296.5,838c0.1,0.2,0.1,0.3,0.1,0.4s-0.1,0.1-0.1,0.2c-0.1,0-0.2,0.1-0.3,0.1s-0.2,0-0.2-0.1
	c-0.1-0.2-0.2-0.2-0.2-0.3c0-0.1,0-0.2,0-0.3c0.2-0.1,0.3-0.2,0.4-0.1S296.4,838,296.5,838z M298.8,837.9c0.1,0.1,0.2,0.2,0.2,0.2
	s0,0,0.1,0.1c0,0,0,0.1,0,0.1s0,0.1,0,0.2c-0.1,0.1-0.2,0.2-0.3,0.2c-0.2,0-0.2,0-0.3,0s0,0-0.1,0s-0.1,0-0.1-0.1s-0.1-0.1-0.1-0.1
	c0-0.1,0-0.1,0-0.1s0-0.1,0-0.1c0.1-0.1,0.2-0.2,0.3-0.2S298.6,837.9,298.8,837.9L298.8,837.9z M301.4,838.4c0,0.1,0,0.1-0.1,0.1
	s-0.1,0.1-0.1,0.1c-0.1,0-0.2,0-0.3,0s-0.2-0.1-0.3-0.1c0-0.2-0.1-0.3-0.1-0.4c0,0,0-0.1,0.1-0.1s0.1-0.1,0.1-0.1
	c0.2-0.1,0.3-0.1,0.4-0.1s0.1,0.1,0.2,0.1c0,0,0,0.1,0,0.1s0.1,0.1,0.1,0.1S301.5,838.3,301.4,838.4
	C301.5,838.4,301.4,838.4,301.4,838.4z M303.7,852.3c-0.1,0.1-0.1,0.2-0.1,0.2s0,0.1-0.1,0.1c-0.1,0-0.1,0-0.2,0s-0.1,0-0.2,0
	c0-0.1-0.1-0.1-0.1-0.2s-0.1-0.1-0.1-0.2c0.1-0.1,0.1-0.2,0.2-0.3s0.1-0.1,0.1-0.1c0.1,0,0.2,0,0.3,0s0.2,0.1,0.2,0.2L303.7,852.3z
	 M303.8,838.4c0,0-0.1,0.1-0.1,0.1s-0.1,0.1,0,0.1c-0.1,0-0.1,0-0.2,0s-0.1,0-0.2,0c-0.1,0-0.1-0.1-0.2-0.1s-0.1-0.1-0.2-0.1
	c0-0.1,0-0.1,0-0.2s0-0.1,0-0.2c0.1,0,0.1-0.1,0.2-0.1s0.1-0.1,0.2-0.1c0.2,0.1,0.3,0.1,0.3,0.1c0.1,0.2,0.1,0.2,0.1,0.3
	S303.8,838.3,303.8,838.4z M303.5,840.7c0,0.1,0.1,0.1,0.1,0.2s0.1,0.1,0.1,0.1c0,0.1-0.1,0.2-0.1,0.2s-0.1,0.1-0.2,0.2
	c-0.1,0-0.2-0.1-0.2,0s-0.1,0-0.1,0c0,0-0.1-0.1-0.1-0.2s-0.1-0.1-0.1-0.2c0.1-0.1,0.1-0.1,0.1-0.3
	C303.1,840.7,303.3,840.7,303.5,840.7z M303.7,846.4c0,0.1,0,0.1,0,0.2s0,0.1,0.1,0.1c-0.1,0.2-0.1,0.3-0.1,0.3s0,0-0.1,0
	c-0.1,0.1-0.2,0.1-0.3,0s-0.1-0.1-0.2-0.1c0,0-0.1-0.1-0.1-0.1s-0.1-0.1-0.1-0.1c0-0.1,0-0.1,0.1-0.2s0.1-0.1,0.1-0.2
	c0.1,0,0.1,0,0.2,0s0.1,0,0.2,0c0,0,0.1,0.1,0.1,0.1S303.6,846.4,303.7,846.4z M303.8,849.4c0,0.1,0,0.1-0.1,0.1s-0.1,0.1,0,0.2
	c-0.2,0.1-0.3,0.2-0.5,0.1c-0.1-0.2-0.1-0.2-0.2-0.2s-0.1,0-0.1-0.1c0-0.1,0-0.2,0.1-0.2c0.1-0.1,0.2-0.1,0.3-0.2s0.2,0,0.2,0.1
	C303.6,849.3,303.7,849.4,303.8,849.4z M303.7,855.2c-0.1,0.1-0.2,0.2-0.3,0.2s-0.1,0-0.1,0s-0.1,0-0.1,0s-0.1,0-0.2,0
	c0-0.1-0.1-0.1-0.1-0.2s-0.1-0.1-0.1-0.2c0-0.1,0.1-0.1,0.1-0.2s0.1-0.1,0.1-0.1c0.1,0,0.1,0,0.2,0s0.1,0,0.2,0
	c0,0.1,0.1,0.2,0.1,0.2S303.8,855,303.7,855.2z M303.8,843.9c-0.1,0.1-0.1,0.2-0.1,0.2s0,0,0,0.1c0,0-0.1,0.1-0.1,0.1
	s-0.1,0.1-0.1,0.1c-0.1-0.1-0.2-0.1-0.2-0.1s-0.1,0-0.1,0c0,0-0.1-0.1-0.1-0.1s-0.1-0.1-0.1-0.1c0-0.3,0.1-0.4,0.1-0.5
	s0.1-0.1,0.2-0.1s0.2,0,0.2,0.1c0.1,0.1,0.2,0.2,0.2,0.2S303.8,843.8,303.8,843.9z M306.2,838.3c0,0.1-0.1,0.2-0.2,0.3
	s-0.3,0.1-0.4,0c0,0-0.1-0.1-0.1-0.1s-0.1-0.1-0.1-0.1c0.1,0,0.1-0.1,0.1-0.1s0-0.1,0-0.2c0.1-0.1,0.1-0.1,0.2-0.2s0.1-0.1,0.1-0.1
	c0.1,0,0.1,0,0.2,0s0.1,0.1,0.2,0.1C306.1,838.1,306.1,838.2,306.2,838.3C306.1,838.2,306.1,838.3,306.2,838.3z M308.4,838.2
	c0,0.1,0,0.2,0,0.2s-0.1,0.1-0.1,0.2c-0.1,0-0.2,0-0.2,0s-0.1,0-0.2,0c0,0-0.1-0.1-0.1-0.1s-0.1-0.1-0.1-0.1c0,0,0-0.1,0-0.2
	s0-0.1,0-0.1c0.1-0.1,0.1-0.1,0.1-0.1s0,0,0.1-0.1c0.1,0,0.2,0,0.2,0s0.1,0,0.2,0C308.3,838.1,308.3,838.1,308.4,838.2z M310.5,838
	c0.2,0.1,0.2,0.3,0.1,0.4c-0.1,0.1-0.2,0.2-0.2,0.2c-0.1,0-0.1,0-0.2,0s-0.1,0-0.2,0c-0.1-0.2-0.2-0.3-0.1-0.4
	c0.1-0.2,0.3-0.2,0.3-0.2S310.4,838,310.5,838z"/>
<path fill="#FFFFFF" d="M312.8,854.9c0,0.1,0,0.2,0,0.2s0,0.1,0,0.2c0,0-0.1,0-0.1,0s-0.1,0-0.1,0.1c-0.3,0-0.5,0-0.5-0.2
	s0-0.3,0.2-0.4c0.2,0,0.2,0.1,0.3,0c0.1,0,0.1,0,0.2,0S312.7,854.9,312.8,854.9z M313.4,853.1c0,0.1,0.1,0.2,0.1,0.2s0,0.1,0,0.1
	c-0.1,0.1-0.2,0.2-0.2,0.2s-0.1,0-0.2-0.1c-0.2-0.1-0.3-0.1-0.3-0.2s0-0.1,0-0.2c0,0,0.1-0.1,0.1-0.1s0.1-0.1,0.1-0.1
	c0.1,0,0.2,0,0.2,0S313.3,853,313.4,853.1z M314.3,850.7c0,0.1,0.1,0.2,0.1,0.2s0.1,0,0,0.1c-0.1,0.2-0.2,0.3-0.4,0.3
	c-0.1-0.1-0.2-0.2-0.3-0.2c0-0.1,0-0.1,0-0.2s0-0.1,0-0.2c0,0,0.1-0.1,0.1-0.1s0.1-0.1,0.1-0.1C314,850.6,314.2,850.7,314.3,850.7z
	 M315.4,848.4c0,0,0,0.1,0,0.1s0,0.1,0,0.2c-0.1,0.1-0.1,0.2-0.1,0.2s0,0-0.1,0c-0.1,0.1-0.2,0.1-0.3,0c-0.1,0-0.1-0.1-0.2-0.1
	s-0.1-0.1-0.1-0.1c0-0.1,0-0.1,0-0.2s0.1-0.1,0.2-0.2c0,0,0.1,0,0.2,0S315.3,848.4,315.4,848.4z M316.4,845.9c0,0.1,0.1,0.1,0.1,0.2
	s0,0.1,0,0.2c-0.1,0.1-0.2,0.1-0.3,0.1s-0.1,0-0.1,0l-0.2-0.2c-0.1-0.1-0.1-0.2-0.1-0.2s0-0.1,0-0.1c0.2-0.1,0.3-0.1,0.3-0.1
	S316.2,845.9,316.4,845.9L316.4,845.9z M317,843.6c0-0.2-0.1-0.3,0-0.4s0-0.1,0-0.1c0.1,0,0.1-0.1,0.2-0.1s0.1,0,0.2,0.1
	c0.1,0,0.1,0,0.1,0s0.1,0,0.1,0c0,0.1,0,0.2,0.1,0.3c-0.1,0.1-0.1,0.1-0.2,0.2c-0.2,0.1-0.3,0.1-0.4,0.1S317,843.6,317,843.6z
	 M317.8,848.7c0,0.1,0,0.2,0,0.2s0,0.1,0,0.2c-0.1,0.1-0.1,0.1-0.1,0.2s0,0-0.1,0.1c-0.1,0-0.1,0-0.2,0s-0.1,0-0.2,0
	c-0.1-0.2-0.1-0.2-0.2-0.3c0-0.1,0.1-0.1,0.1-0.2s0.1-0.1,0.2-0.2c0.1,0,0.2,0,0.2,0S317.8,848.7,317.8,848.7z M318.7,841.1
	c-0.1,0-0.1,0-0.2,0s-0.1,0-0.2,0c0-0.2-0.1-0.3-0.1-0.3s0-0.1,0-0.1c0-0.1,0-0.1,0.1-0.2s0.1-0.1,0.1-0.1c0.1,0,0.2,0,0.2,0
	s0.1,0,0.2,0c0,0.1,0.1,0.1,0.1,0.2s0.1,0.1,0,0.2c0,0.1,0,0.1-0.1,0.2S318.7,841.1,318.7,841.1z M319.8,848.6
	c0.1,0.2,0.1,0.3,0.1,0.3s0,0,0,0c0,0,0,0.1,0,0.1s0,0.1,0,0.2c-0.1,0.1-0.2,0.1-0.2,0.1s0,0-0.1,0c-0.2,0-0.3,0-0.3,0
	c-0.1-0.1-0.1-0.2-0.1-0.3s0-0.2,0-0.2c0.1-0.1,0.1-0.1,0.2-0.2S319.7,848.6,319.8,848.6z M319.9,838c0.1,0.1,0.1,0.2,0.2,0.2
	c0,0.2,0,0.3-0.1,0.3s-0.1,0.1-0.1,0.1c-0.1,0-0.2,0-0.3,0c-0.1-0.1-0.2-0.1-0.2-0.1s0,0-0.1,0c0-0.1,0-0.2,0-0.2s0-0.1,0-0.2
	c0-0.1,0.1-0.1,0.2-0.1S319.8,837.9,319.9,838z M321.1,840.7c-0.1,0-0.2,0-0.2-0.1s-0.1-0.1-0.2-0.1c0-0.2,0.1-0.3,0.1-0.4
	s0.1-0.1,0.2-0.1l0.3,0c0,0,0.1,0.1,0.1,0.1s0.1,0.1,0.1,0.2c-0.1,0.2-0.1,0.2-0.2,0.3S321.1,840.7,321.1,840.7L321.1,840.7z
	 M321.9,848.7c0,0.1,0,0.2,0,0.2s0.1,0.1,0,0.2c0,0.1,0,0.2-0.1,0.2c-0.2,0.1-0.4,0.1-0.4,0.1c0,0-0.1-0.1-0.1-0.1s-0.1-0.1-0.1-0.1
	c0,0,0-0.1,0-0.1s0-0.1,0-0.1c0.1-0.1,0.1-0.2,0.1-0.2s0,0,0-0.1c0.1-0.1,0.2-0.1,0.2-0.1s0.1,0,0.1,0L321.9,848.7z M322.2,843.1
	c0,0,0.1,0.1,0.1,0.1s0.1,0.1,0.1,0.2l-0.2,0.3c-0.1,0-0.2,0-0.2,0s-0.2-0.1-0.2-0.1c0-0.1-0.1-0.2,0-0.3
	C321.9,843.1,322,843.1,322.2,843.1z M323.5,846.2c-0.1,0-0.1,0-0.2,0.1s-0.1,0-0.2,0c-0.1,0-0.1,0-0.2-0.1s-0.1-0.1-0.2-0.1
	c0-0.1,0-0.2,0-0.3c0.2-0.2,0.3-0.3,0.4-0.3s0.2,0,0.3,0.1c0.1,0.1,0.1,0.2,0.1,0.2S323.5,846.1,323.5,846.2z M323.9,848.9
	c0,0-0.1-0.1-0.1-0.1s-0.1-0.1-0.1-0.1c0-0.2-0.1-0.3-0.1-0.4c0.2-0.1,0.4-0.2,0.5-0.1s0.2,0.1,0.2,0.1c0,0,0,0.1,0,0.2s0,0.1,0,0.2
	c0,0.1-0.1,0.2-0.2,0.2S324,848.9,323.9,848.9z M324.8,850.2c0.2,0,0.2,0.1,0.3,0s0.1,0,0.1,0c0.1,0.1,0.2,0.2,0.2,0.2
	c0,0.1,0,0.2,0,0.3c-0.3,0.1-0.5,0.1-0.6,0s-0.1-0.2-0.1-0.4L324.8,850.2z M325.9,852.7c0,0.1,0,0.1,0,0.2s0.1,0.1,0.1,0.1
	c0,0.1-0.1,0.2-0.2,0.3s-0.2,0.1-0.3,0.1c0,0-0.1-0.1-0.2-0.1s-0.1-0.1-0.2-0.2c0,0,0-0.1,0-0.1s0-0.1,0-0.2c0,0,0.1-0.1,0.2-0.2
	c0.1,0,0.2,0,0.2,0S325.8,852.7,325.9,852.7z M326.8,854.9c0.1,0.1,0.1,0.2,0.1,0.3s0,0.1,0,0.1c-0.1,0.1-0.1,0.2-0.1,0.2
	s-0.1,0-0.1,0c-0.1,0-0.2,0-0.2,0s-0.1,0-0.2,0c0-0.2-0.1-0.3-0.1-0.3s0-0.1,0-0.1c0.1-0.1,0.2-0.2,0.4-0.2L326.8,854.9z"/>
<path fill="#FFFFFF" d="M330.6,855.5c-0.1,0-0.2-0.1-0.2-0.1s-0.2,0-0.2-0.1c-0.1-0.2-0.1-0.3-0.1-0.4s0-0.1,0.1-0.1
	c0.1-0.1,0.2-0.2,0.2-0.2s0.1,0,0.1,0c0.2,0,0.3,0.1,0.4,0.2c0,0.1,0.1,0.2,0.1,0.2s0,0.1,0,0.1
	C330.7,855.3,330.7,855.4,330.6,855.5C330.6,855.5,330.6,855.5,330.6,855.5z M330.3,841.1c-0.2-0.1-0.2-0.2-0.2-0.3s0-0.1-0.1-0.1
	c0,0,0.1-0.1,0.1-0.1s0-0.1,0-0.2c0.1,0,0.1-0.1,0.2-0.1s0.2,0,0.2,0c0,0,0.1,0.1,0.1,0.1s0.1,0.1,0.1,0.1l0,0.3
	C330.6,841,330.4,841.1,330.3,841.1z M330.8,843.3c0,0.1,0,0.2,0,0.3s-0.1,0.2-0.2,0.3c-0.3,0.1-0.5,0-0.6-0.3c0-0.1,0.1-0.2,0-0.3
	c0,0,0.1,0,0.1-0.1s0.1-0.1,0.1-0.1c0.2,0,0.4,0,0.4,0.1S330.7,843.3,330.8,843.3z M330.8,846.3c-0.1,0.2-0.1,0.2-0.1,0.3s0,0,0,0.1
	c-0.1,0.1-0.2,0.2-0.2,0.2s0-0.1-0.1-0.1c-0.2,0-0.3,0-0.3,0s-0.1,0-0.1-0.1c0-0.1,0-0.2,0-0.2s0-0.1,0-0.1c0.1-0.1,0.2-0.2,0.3-0.3
	s0.2,0,0.3,0c0,0,0.1,0.1,0.1,0.1S330.8,846.3,330.8,846.3z M330,852c0.2-0.1,0.3-0.2,0.4-0.2c0.1,0,0.2,0,0.3,0
	c0,0.1,0.1,0.2,0.1,0.2s0,0,0,0.1s0,0.1-0.1,0.2s-0.1,0.1-0.1,0.1c-0.2,0-0.4,0.1-0.5,0c0,0-0.1-0.1-0.1-0.1s-0.1-0.1-0.1-0.1
	c0-0.1,0-0.1,0-0.1S330,852.1,330,852z M330.8,838.2c0,0.1,0,0.2,0,0.3c-0.3,0.1-0.6,0.1-0.7,0c0,0,0-0.1,0-0.1s0-0.1,0-0.1
	c0.1-0.1,0.1-0.1,0.1-0.2s0-0.1,0-0.1c0,0,0.1,0,0.1,0s0.1,0,0.2,0c0.1,0,0.1,0,0.1,0s0.1,0,0.1,0.1
	C330.6,838,330.7,838,330.8,838.2C330.7,838.1,330.8,838.1,330.8,838.2z M330.7,849c0,0.1,0.1,0.1,0.1,0.2s0,0.1,0.1,0.2
	c0,0-0.1,0.1-0.1,0.1s-0.1,0-0.1,0.1c-0.1,0.1-0.2,0.2-0.2,0.2s0,0,0,0c-0.2,0-0.2-0.1-0.3-0.1s-0.1-0.1-0.1-0.1c0-0.1,0-0.1,0-0.2
	s0-0.1,0-0.2c0.1,0,0.2-0.1,0.2-0.1s0,0,0.1,0C330.4,849,330.5,849,330.7,849z M333,847c0,0.1,0.1,0.1,0.1,0.1s0.1,0.1,0.1,0.1
	c0,0.2-0.1,0.3-0.1,0.3s0,0-0.1,0.1c-0.2,0.1-0.3,0.1-0.4,0c-0.2-0.2-0.2-0.3-0.2-0.4s0.1-0.1,0.1-0.2c0.1-0.1,0.2-0.1,0.3,0
	S332.9,847,333,847z M333.5,838.1c0,0.1,0,0.1-0.1,0.1s-0.1,0.1,0,0.1c-0.1,0-0.1,0-0.1,0.1s-0.1,0-0.1,0.1c-0.1,0-0.1,0-0.2,0
	s-0.1,0-0.2,0c0,0-0.1-0.1-0.1-0.1s0-0.1-0.1-0.2c0,0,0.1-0.1,0.1-0.3c0.1,0,0.1-0.1,0.2-0.1s0.2,0,0.2,0c0.1,0.1,0.2,0.2,0.2,0.2
	s0,0,0.1,0L333.5,838.1z M335.7,847.1c0,0.1,0,0.2,0,0.2s0,0.1,0,0.2c0,0.1-0.1,0.1-0.2,0.1s-0.2,0-0.3,0c-0.1-0.1-0.1-0.2-0.2-0.3
	s0-0.1,0-0.1c0,0,0-0.1,0.1-0.1s0.1-0.1,0.1-0.2c0.1,0,0.1,0,0.2,0s0.1,0,0.2,0c0.1,0,0.1,0.1,0.2,0.1S335.6,847.1,335.7,847.1z
	 M336,838.4c-0.1,0-0.1,0-0.2,0s-0.1,0-0.2,0c-0.1-0.1-0.1-0.1-0.2-0.2s0-0.1-0.1-0.2c0.1-0.1,0.1-0.2,0.1-0.3c0.1,0,0.1,0,0.2,0
	s0.1,0,0.1,0c0.1,0,0.1,0,0.2,0.1s0.1,0.1,0.2,0.1c0,0.2,0,0.3,0,0.3S336,838.3,336,838.4z M337.5,849.1c-0.1,0-0.2,0-0.3,0
	s-0.1,0-0.2,0c0-0.1,0-0.1-0.1-0.1s0-0.1,0-0.1c0-0.1,0-0.1,0-0.2s0-0.1,0-0.2c0.2-0.1,0.3-0.1,0.4-0.2c0.1,0,0.1,0.1,0.2,0.1
	s0.1,0.1,0.2,0.1c0,0.2,0,0.3,0,0.4S337.5,849,337.5,849.1z M338.5,846.7c0,0.2-0.1,0.3-0.2,0.4c-0.3,0.1-0.5,0-0.6-0.1
	c0-0.1,0-0.2,0-0.3s0-0.2,0.1-0.3c0,0,0.1,0,0.2,0s0.1,0,0.1,0C338.2,846.5,338.3,846.5,338.5,846.7
	C338.4,846.6,338.4,846.6,338.5,846.7z M338.6,838.3c0,0,0,0.1,0,0.1s0,0.1,0,0.1c-0.2,0.1-0.3,0.2-0.4,0.2s-0.2,0-0.2-0.1
	s-0.1-0.1-0.1-0.2s0-0.1-0.1-0.1c0.1-0.1,0.1-0.2,0-0.3c0.1,0,0.1-0.1,0.2-0.1s0.1,0,0.2,0C338.4,838.1,338.6,838.2,338.6,838.3z
	 M338.8,850.6l0.2,0.2c0.1,0.1,0.1,0.2,0.1,0.2s0,0,0,0c-0.2,0.2-0.3,0.3-0.4,0.3s-0.2,0-0.3,0c-0.1-0.1-0.2-0.1-0.2-0.2
	c0-0.2,0-0.3,0.1-0.3s0.1-0.1,0.1-0.2c0.1,0,0.1,0,0.2,0S338.7,850.6,338.8,850.6z M340.3,853.4c-0.1,0-0.2,0-0.3,0s-0.2,0-0.2-0.1
	c0-0.2-0.1-0.3-0.1-0.3s0-0.1,0-0.1c0.1-0.1,0.2-0.1,0.2-0.2s0.1,0,0.2,0c0.2,0.1,0.2,0.2,0.3,0.2c0,0.1,0.1,0.1,0.1,0.2
	s0,0.2-0.1,0.2L340.3,853.4z M340.4,844.5l0.2,0.2c0,0.2,0,0.3,0,0.3s0,0.1,0,0.1c-0.1,0-0.1,0-0.1,0s-0.1,0.1-0.1,0.1
	c-0.1,0-0.2,0-0.2-0.1s-0.1-0.1-0.2-0.1c0-0.1,0-0.1,0-0.2s-0.1-0.1-0.1-0.1c0.1-0.2,0.2-0.3,0.3-0.3S340.3,844.6,340.4,844.5z
	 M340.8,839.9c0,0.1,0,0.1,0,0.1s0,0.1,0,0.1c-0.1,0-0.1,0-0.1,0.1s-0.1,0.1-0.1,0.1c-0.1,0-0.1,0-0.2,0s-0.1-0.1-0.2-0.1
	c0-0.1-0.1-0.2-0.1-0.2s0-0.2,0-0.3c0.2-0.1,0.3-0.1,0.4-0.1s0.1,0,0.1,0c0.1,0.1,0.2,0.2,0.2,0.2S340.8,839.9,340.8,839.9z
	 M341.4,842.6c0,0,0,0.1-0.1,0.1s-0.1,0.1-0.1,0.1c-0.1,0-0.1,0-0.2,0s-0.1,0-0.2,0c0,0-0.1-0.1-0.1-0.2s-0.1-0.1-0.1-0.2
	c0.1-0.2,0.1-0.3,0.1-0.3s0.1-0.1,0.1-0.1c0.1,0,0.1,0,0.2,0s0.1,0,0.1,0c0.1,0.1,0.2,0.1,0.2,0.2s0,0,0.1,0.1V842.6z M341.7,855.6
	c-0.1,0-0.1,0-0.2,0s-0.1,0-0.2,0c0,0-0.1-0.1-0.1-0.1s-0.1-0.1-0.1-0.1c0-0.2,0.1-0.4,0.1-0.4c0.2-0.1,0.3-0.2,0.3-0.2s0.1,0,0.2,0
	c0.1,0,0.1,0.1,0.2,0.1s0.1,0.1,0.1,0.1c0,0.2,0,0.3-0.1,0.4C341.8,855.4,341.7,855.5,341.7,855.6
	C341.7,855.5,341.7,855.5,341.7,855.6z"/>
<path fill="#FFFFFF" d="M345.2,853.5c0,0.1,0,0.1,0,0.2s0,0.1,0,0.2l-0.3,0.2c-0.1,0-0.2,0.1-0.2,0s-0.1,0-0.2,0
	c-0.1-0.1-0.2-0.2-0.2-0.2s0-0.1,0-0.1c0.1-0.1,0.2-0.2,0.2-0.2c0,0,0.1-0.1,0.1-0.1s0.1,0,0.2-0.1c0.1,0,0.1,0,0.2,0.1
	S345.1,853.4,345.2,853.5z M345.2,842.3c0,0.1,0,0.1,0,0.2s0,0.1,0,0.1c0,0.1-0.1,0.1-0.2,0.2c-0.1,0-0.1,0-0.2,0s-0.1-0.1-0.2-0.1
	c-0.1-0.2-0.1-0.3-0.1-0.4c0.1-0.1,0.1-0.2,0.2-0.2s0.1,0,0.1-0.1c0.1,0,0.2,0,0.3,0.1S345.1,842.2,345.2,842.3z M345.4,839.6
	c0,0,0.1,0,0.2,0s0.1,0,0.1,0c0,0.1,0,0.1,0,0.2s0,0.2,0,0.2c-0.2,0.1-0.3,0.1-0.4,0.1s-0.1,0-0.2,0c-0.1-0.1-0.2-0.1-0.2-0.2
	s-0.1-0.2,0-0.3c0.1-0.1,0.2-0.2,0.3-0.2L345.4,839.6z M345.8,844.5c0.1,0,0.1,0,0.2,0s0.1,0,0.2,0c0,0,0.1,0.1,0.1,0.1
	s0.1,0.1,0.2,0.1c0,0.2,0,0.3,0,0.3s0,0.1-0.1,0.1c-0.1,0.1-0.2,0.1-0.2,0.1s0,0-0.1,0c-0.2-0.1-0.2-0.2-0.3-0.2s0,0,0,0
	c-0.1-0.2-0.1-0.3,0-0.4S345.8,844.6,345.8,844.5z M346.9,854.5c0.1,0,0.2-0.1,0.2,0s0.2,0.1,0.2,0c0,0.1,0.1,0.1,0.1,0.2
	s0.1,0.1,0.1,0.1c-0.1,0.3-0.3,0.4-0.6,0.4c-0.1,0-0.1-0.1-0.1-0.2s-0.1-0.1-0.1-0.2c0-0.1,0-0.1,0-0.2S346.8,854.6,346.9,854.5
	L346.9,854.5z M347.1,838.8c0-0.1,0-0.1,0-0.2s-0.1-0.1-0.1-0.2c0.2-0.3,0.4-0.4,0.6-0.4c0.1,0.1,0.2,0.2,0.2,0.3s0,0.1,0,0.2
	c-0.2,0.1-0.2,0.2-0.3,0.2s-0.1,0-0.1,0c0,0-0.1,0-0.1,0S347.1,838.8,347.1,838.8z M349,846c0,0.1-0.1,0.2-0.1,0.3
	c-0.1,0-0.2,0-0.3,0s-0.2,0-0.3-0.1c0-0.1-0.1-0.2-0.1-0.3s0-0.2,0.1-0.3c0,0,0.1,0,0.1,0s0.1,0,0.2,0c0.1,0.1,0.2,0.1,0.2,0.1
	s0.1,0,0.1,0L349,846z M350.1,838.1c-0.1,0-0.1,0.1-0.2,0.1s-0.1,0.1-0.2,0.1c-0.1,0-0.1,0-0.2,0s-0.1,0-0.2,0l-0.1-0.4
	c0.2-0.2,0.5-0.2,0.6-0.2c0.1,0.2,0.2,0.3,0.2,0.3S350,838.1,350.1,838.1z M349.5,855.6c0-0.1-0.1-0.2-0.1-0.2s0-0.1,0-0.3
	c0.2-0.1,0.3-0.2,0.3-0.1s0.1,0,0.2,0c0.1,0.1,0.2,0.2,0.2,0.2s0.1,0,0.1,0.1c0,0.1,0,0.2,0,0.3s-0.1,0.1-0.2,0.2
	c-0.1,0-0.1,0-0.2,0S349.6,855.6,349.5,855.6z M350.8,846.9c0-0.1,0-0.1,0-0.2s-0.1-0.1-0.1-0.2c0,0,0-0.1,0-0.1s0-0.1,0-0.2
	c0.1,0,0.1-0.1,0.3-0.1s0.2,0,0.3,0c0,0,0,0.1,0.1,0.1s0.1,0.1,0.1,0.2c0,0,0,0.1,0,0.1s0,0.1,0,0.2c-0.1,0-0.1,0.1-0.2,0.1
	s-0.1,0.1-0.3,0L350.8,846.9z M351.5,838.7c0-0.1,0-0.2,0-0.2s0-0.1,0-0.1c0.1-0.1,0.2-0.2,0.3-0.2s0.1,0,0.1,0c0.1,0,0.1,0,0.2,0.1
	s0.1,0.1,0.2,0.1c0,0.2,0,0.4-0.2,0.5c-0.1,0-0.2,0-0.3,0S351.6,838.7,351.5,838.7z M352.7,855.1c-0.1,0-0.1,0-0.2-0.1
	s-0.1-0.1-0.1-0.1c-0.1-0.1-0.1-0.2-0.2-0.2s0,0,0,0c0.1-0.2,0.1-0.2,0.1-0.3s0-0.1,0.1-0.1c0.1,0,0.1,0,0.2-0.1s0.2,0,0.3,0
	c0.1,0.1,0.1,0.1,0.2,0.2s0.1,0.1,0.1,0.2c0,0.1,0,0.2-0.1,0.3S352.7,855,352.7,855.1z M353.5,839.2c0.1,0.1,0.3,0.2,0.4,0.2
	c0,0.1,0.1,0.1,0,0.2s-0.1,0.1-0.1,0.2c-0.1,0-0.2,0.1-0.3,0.1s-0.2,0-0.3-0.1c0,0-0.1-0.1-0.1-0.1s0-0.1-0.1-0.2
	c0-0.1,0-0.1,0.1-0.2s0.1-0.1,0.1-0.2L353.5,839.2z M353.7,847.3c0,0,0.1,0.1,0.1,0.1s0.1,0,0.1,0.1c0,0.1,0.1,0.2,0.1,0.2s0,0,0,0
	c0,0.1,0,0.2-0.1,0.3s-0.2,0.1-0.2,0.2c-0.1,0-0.2-0.1-0.3-0.1s-0.2-0.1-0.2-0.2c0-0.2,0-0.3,0-0.4c0,0,0.1-0.1,0.1-0.1
	s0.1-0.1,0.1-0.1L353.7,847.3z M354.6,852.4c0.1,0.1,0.2,0.1,0.2,0.1s0,0,0.1,0c0.1,0.2,0.2,0.3,0.2,0.3s0,0,0,0.1
	c0,0.1,0,0.2,0,0.2s0,0.1,0,0.1c-0.1,0-0.1,0-0.2,0s-0.1,0-0.2,0c0,0-0.1,0-0.1-0.1s-0.1-0.1-0.2,0c0-0.2-0.1-0.3-0.2-0.3
	c0-0.1,0.1-0.1,0.1-0.2s0.1-0.1,0.1-0.2C354.4,852.5,354.5,852.5,354.6,852.4z M355.3,841c0,0.1,0,0.1,0,0.1s-0.1,0.1,0,0.1
	c0,0-0.1,0-0.1,0s-0.1,0-0.2,0c0,0-0.1,0.1-0.1,0s-0.1,0-0.1,0c-0.1-0.1-0.2-0.2-0.2-0.2c0-0.1,0-0.3,0-0.4c0,0,0.1,0,0.1-0.1
	s0.1-0.1,0.1-0.1C355,840.6,355.2,840.7,355.3,841z M354.7,850.4c0-0.2,0-0.3,0-0.3s0,0,0-0.1c0-0.1,0.1-0.2,0.1-0.2
	s0.1-0.1,0.1-0.1c0.1,0,0.1,0,0.2,0s0.1,0,0.2,0c0.1,0.1,0.2,0.1,0.2,0.2s0.1,0.2,0.1,0.3c0,0-0.1,0.1-0.1,0.1s0,0.1-0.1,0.1
	c-0.2,0-0.3,0-0.3,0L354.7,850.4z"/>
<path fill="#FFFFFF" d="M359.8,843.1c-0.1,0.2-0.2,0.3-0.2,0.3s0,0.1-0.1,0.1c-0.1,0.1-0.3,0.1-0.4,0s-0.2-0.1-0.3-0.3l0-0.3
	l0.2-0.2c0.1,0,0.2,0,0.3,0s0.1,0,0.2,0C359.6,843,359.7,843.1,359.8,843.1z M359.5,853.4c0.1,0.1,0.2,0.1,0.2,0.1s0.1,0.1,0.1,0.1
	c0,0,0,0.1,0,0.2s0,0.1,0,0.2c-0.1,0.1-0.2,0.2-0.2,0.2c-0.2,0-0.3,0-0.4-0.1s-0.1,0-0.2,0c-0.1-0.2-0.1-0.4,0-0.5
	C359.1,853.4,359.2,853.4,359.5,853.4z M359.6,855.6l-0.4,0.1c-0.1,0-0.2-0.1-0.2-0.1s0,0-0.1,0c0-0.1,0-0.1,0-0.2s0-0.1,0-0.1
	c0-0.2,0.1-0.2,0.2-0.2s0.2,0,0.2-0.1c0.1,0,0.1,0.1,0.2,0.1s0.1,0.1,0.2,0.1C359.7,855.3,359.7,855.4,359.6,855.6z M359.7,840.4
	c0,0.1,0,0.2,0.1,0.3c0,0-0.1,0.1-0.1,0.2s-0.1,0.1-0.1,0.2c-0.1,0-0.2,0-0.3,0s-0.1,0-0.1,0c-0.1-0.1-0.1-0.2-0.1-0.2
	s-0.1-0.1-0.1-0.1c0-0.2,0.1-0.3,0.1-0.3s0-0.1,0-0.1c0,0,0.1,0,0.1,0s0.1,0,0.2,0c0.1,0,0.2,0.1,0.2,0.1s0.1,0,0.1,0L359.7,840.4z
	 M359.8,848.6c-0.1,0-0.1,0.1-0.2,0.1h-0.3c-0.1,0-0.1-0.1-0.1-0.1s-0.1-0.1-0.1-0.2c0,0,0-0.1,0-0.2s0-0.1,0-0.2
	c0.2-0.1,0.3-0.2,0.4-0.1s0.1,0,0.2,0c0.1,0.1,0.1,0.2,0.1,0.2S359.8,848.4,359.8,848.6z M359.8,850.9c0,0.2-0.1,0.3-0.3,0.4
	c-0.2,0-0.4,0-0.5-0.2c0-0.2,0-0.3,0-0.3s0-0.1,0-0.1c0.2-0.1,0.3-0.2,0.3-0.2s0.1,0,0.1,0c0.1,0,0.2,0.1,0.2,0.2
	S359.7,850.8,359.8,850.9z M359.1,845.4c0.2,0,0.3,0,0.3,0c0.1,0,0.1,0,0.2,0.1s0.1,0.1,0.2,0.1c0,0.2,0,0.3,0,0.3s0,0,0,0.1
	c-0.1,0.1-0.1,0.2-0.2,0.3s-0.1,0-0.1,0c-0.1,0-0.1,0-0.2-0.1s-0.1-0.1-0.2-0.1c0-0.2-0.1-0.3,0-0.4S359,845.5,359.1,845.4z
	 M359.1,837.8c0,0,0.1,0,0.2-0.1s0.1,0,0.2,0c0.2,0.2,0.3,0.3,0.3,0.4s0,0.2,0,0.3c-0.1,0.1-0.2,0.1-0.3,0.1s-0.1,0-0.2,0
	c0,0-0.1-0.1-0.1-0.1s-0.1-0.1-0.1-0.1c0-0.1,0-0.2,0-0.3S359.1,837.9,359.1,837.8z"/>
</svg>
